<svg width="21" height="21" viewBox="0 0 21 21" fill="none" xmlns="http://www.w3.org/2000/svg">
<path d="M2.618 0H0V2.618H2.618V0Z" fill="#1a1f2d"/>
<path d="M7.87386 0H5.25586V2.618H7.87386V0Z" fill="#1a1f2d"/>
<path d="M13.118 0H10.5V2.618H13.118V0Z" fill="#1a1f2d"/>
<path d="M2.618 5.23633H0V7.85433H2.618V5.23633Z" fill="#1a1f2d"/>
<path d="M2.618 10.4971H0V20.9941H2.618V10.4971Z" fill="#1a1f2d"/>
<path d="M5.23714 7.85352H2.61914V10.4715H5.23714V7.85352Z" fill="#1a1f2d"/>
<path d="M7.87386 13.127H5.25586V15.745H7.87386V13.127Z" fill="#1a1f2d"/>
<path d="M10.495 10.4707H7.87695V13.0887H10.495V10.4707Z" fill="#1a1f2d"/>
<path d="M20.9964 18.3818H2.61914V20.9998H20.9964V18.3818Z" fill="#1a1f2d"/>
<path d="M15.7371 5.23633H13.1191V15.7463H15.7371V5.23633Z" fill="#1a1f2d"/>
<path d="M20.995 7.87305H18.377V18.383H20.995V7.87305Z" fill="#1a1f2d"/>
<path d="M10.5004 5.23633H5.25586V7.85433H10.5004V5.23633Z" fill="#1a1f2d"/>
<path d="M20.995 2.61816H18.377V5.23616H20.995V2.61816Z" fill="#1a1f2d"/>
<path d="M21.0004 0H15.7559V2.618H21.0004V0Z" fill="#1a1f2d"/>
</svg>
