<svg xmlns="http://www.w3.org/2000/svg" viewBox="0 0 171.65 251.54"><defs><style>.cls-1{fill:#110f19;}</style></defs><title>Asset 1</title><g id="Layer_2" data-name="Layer 2"><g id="BlueName"><rect class="cls-1" width="21.4" height="21.4"/><rect class="cls-1" x="42.96" width="21.4" height="21.4"/><rect class="cls-1" x="85.83" width="21.4" height="21.4"/><rect class="cls-1" y="42.81" width="21.4" height="21.4"/><rect class="cls-1" y="85.83" width="21.4" height="85.83"/><rect class="cls-1" x="21.4" y="64.21" width="21.4" height="21.4"/><rect class="cls-1" x="42.96" y="107.33" width="21.4" height="21.4"/><rect class="cls-1" x="64.39" y="85.62" width="21.4" height="21.4"/><rect class="cls-1" y="150.3" width="171.62" height="21.4"/><rect class="cls-1" x="107.23" y="42.81" width="21.4" height="85.93"/><rect class="cls-1" x="150.22" y="64.37" width="21.4" height="107.33"/><rect class="cls-1" x="42.96" y="42.81" width="42.87" height="21.4"/><rect class="cls-1" x="150.22" width="21.4" height="42.81"/><rect class="cls-1" x="128.78" width="42.87" height="21.4"/><path class="cls-1" d="M33.12,238.8a2.75,2.75,0,0,1,.09.75v2.13a3,3,0,0,1-.09.77c-.06.22-.13.34-.2.34h-.67q-3.7,0-5-2.46c.14,2.11.21,3.84.21,5.2a3.49,3.49,0,0,1-1.69,2.93,11.92,11.92,0,0,1-4.25,1.78,23.08,23.08,0,0,1-5.16.59q-4.59,0-6.67-1.73a6.37,6.37,0,0,1-2.08-5.18,19.1,19.1,0,0,1,.25-2.43c.17-1.15.37-2.49.61-4l.74-4.67,2.67.57a85.09,85.09,0,0,0-1.32,10,2.49,2.49,0,0,0,1.64,2.4,10.37,10.37,0,0,0,4.16.73,26.79,26.79,0,0,0,4.81-.38,8.83,8.83,0,0,0,3.34-1.26L23.14,231.4l3.31-.68.53,5a3.08,3.08,0,0,0,.73,1.86,2.8,2.8,0,0,0,1.57.75,19,19,0,0,0,2.9.16h.74C33,238.48,33.06,238.59,33.12,238.8ZM16.88,224,20,226.49l-2.38,2.92L14.49,227Z"/><path class="cls-1" d="M40.8,238.8a2.75,2.75,0,0,1,.09.75v2.13a3,3,0,0,1-.09.77c-.06.22-.12.34-.19.34H32.92c-.07,0-.13-.12-.19-.34a3,3,0,0,1-.09-.77v-2.13a2.75,2.75,0,0,1,.09-.75c.06-.21.12-.32.19-.32h7.69C40.68,238.48,40.74,238.59,40.8,238.8Z"/><path class="cls-1" d="M48.49,238.8a2.75,2.75,0,0,1,.09.75v2.13a3,3,0,0,1-.09.77c-.06.22-.13.34-.2.34H40.61c-.07,0-.14-.12-.2-.34a3,3,0,0,1-.09-.77v-2.13a2.75,2.75,0,0,1,.09-.75c.06-.21.13-.32.2-.32h7.68C48.36,238.48,48.43,238.59,48.49,238.8Z"/><path class="cls-1" d="M56.17,238.8a2.75,2.75,0,0,1,.09.75v2.13a3,3,0,0,1-.09.77c-.06.22-.12.34-.19.34H48.29c-.07,0-.13-.12-.19-.34a3,3,0,0,1-.09-.77v-2.13a2.75,2.75,0,0,1,.09-.75c.06-.21.12-.32.19-.32H56C56.05,238.48,56.11,238.59,56.17,238.8Z"/><path class="cls-1" d="M63.86,238.8a2.75,2.75,0,0,1,.09.75v2.13a3,3,0,0,1-.09.77c-.06.22-.13.34-.2.34H56c-.07,0-.14-.12-.2-.34a3,3,0,0,1-.09-.77v-2.13a2.75,2.75,0,0,1,.09-.75c.06-.21.13-.32.2-.32h7.68C63.73,238.48,63.8,238.59,63.86,238.8Z"/><path class="cls-1" d="M71.54,238.8a2.75,2.75,0,0,1,.09.75v2.13a3,3,0,0,1-.09.77c-.06.22-.12.34-.19.34H63.66c-.07,0-.14-.12-.19-.34a3,3,0,0,1-.09-.77v-2.13a2.75,2.75,0,0,1,.09-.75c.05-.21.12-.32.19-.32h7.69C71.42,238.48,71.48,238.59,71.54,238.8Z"/><path class="cls-1" d="M79.23,238.8a3.25,3.25,0,0,1,.08.75v2.13a3.57,3.57,0,0,1-.08.77c-.06.22-.13.34-.2.34H71.35c-.08,0-.14-.12-.2-.34a3,3,0,0,1-.09-.77v-2.13a2.75,2.75,0,0,1,.09-.75c.06-.21.12-.32.2-.32H79C79.1,238.48,79.17,238.59,79.23,238.8Z"/><path class="cls-1" d="M86.91,238.8a2.75,2.75,0,0,1,.09.75v2.13a3,3,0,0,1-.09.77c-.06.22-.12.34-.19.34H79c-.07,0-.14-.12-.2-.34a3.57,3.57,0,0,1-.08-.77v-2.13a3.25,3.25,0,0,1,.08-.75c.06-.21.13-.32.2-.32h7.69C86.79,238.48,86.85,238.59,86.91,238.8Z"/><path class="cls-1" d="M94.6,238.8a3.25,3.25,0,0,1,.08.75v2.13a3.57,3.57,0,0,1-.08.77c-.06.22-.13.34-.2.34H86.71c-.07,0-.13-.12-.19-.34a3,3,0,0,1-.09-.77v-2.13a2.75,2.75,0,0,1,.09-.75c.06-.21.12-.32.19-.32H94.4C94.47,238.48,94.54,238.59,94.6,238.8Z"/><path class="cls-1" d="M102.28,238.8a2.75,2.75,0,0,1,.09.75v2.13a3,3,0,0,1-.09.77c-.06.22-.13.34-.2.34H94.4c-.07,0-.14-.12-.2-.34a3,3,0,0,1-.09-.77v-2.13a2.75,2.75,0,0,1,.09-.75c.06-.21.13-.32.2-.32h7.68C102.15,238.48,102.22,238.59,102.28,238.8Z"/><path class="cls-1" d="M110,238.8a2.75,2.75,0,0,1,.09.75v2.13a3,3,0,0,1-.09.77c-.06.22-.12.34-.19.34h-7.69c-.07,0-.13-.12-.19-.34a3,3,0,0,1-.09-.77v-2.13a2.75,2.75,0,0,1,.09-.75c.06-.21.12-.32.19-.32h7.69C109.84,238.48,109.9,238.59,110,238.8Z"/><path class="cls-1" d="M117.65,238.8a2.75,2.75,0,0,1,.09.75v2.13a3,3,0,0,1-.09.77c-.06.22-.13.34-.2.34h-7.68c-.07,0-.14-.12-.2-.34a3,3,0,0,1-.09-.77v-2.13a2.75,2.75,0,0,1,.09-.75c.06-.21.13-.32.2-.32h7.68C117.52,238.48,117.59,238.59,117.65,238.8Z"/><path class="cls-1" d="M146,238.78a4,4,0,0,1,.07.77v2.13a4.37,4.37,0,0,1-.07.79c-.05.21-.12.32-.22.32h-1.49a5.31,5.31,0,0,1-2.51-.57,3.49,3.49,0,0,1-1.58-1.64,4.52,4.52,0,0,1-2,1.65,6.82,6.82,0,0,1-2.74.56c-2.18,0-3.57-.66-4.16-2a3.13,3.13,0,0,1-1.71,1.53,6.29,6.29,0,0,1-2.17.43c-1.95,0-3.27-.67-4-2a4.27,4.27,0,0,1-2.36,1.53,12.72,12.72,0,0,1-3.58.47c-.07,0-.13-.12-.19-.34a3,3,0,0,1-.09-.77v-2.13a2.75,2.75,0,0,1,.09-.75c.06-.21.12-.32.19-.32a14.32,14.32,0,0,0,2.4-.18,7.07,7.07,0,0,0,2-.64l.07-5.37h3l-.1,4.23c0,1.31.71,2,2.2,2a6.68,6.68,0,0,0,2.85-.53l-.25-7,3-.1.18,7.11a3,3,0,0,0,1.92.5,7.38,7.38,0,0,0,3.31-.6l-.74-8.44,3.3-.57.43,6.94a2.91,2.91,0,0,0,.75,2.07,3.83,3.83,0,0,0,2.49.6h1.49C145.87,238.48,145.94,238.58,146,238.78ZM127.7,222.51l2.74,2.17-2.21,2.74-2.7-2.17Zm2.35-5.23,2.7,2.17-2.17,2.74L127.84,220Zm2.52,5.23,2.71,2.17-2.17,2.74-2.74-2.17Z"/><path class="cls-1" d="M146.48,246.45l2.85,2.28-2.28,2.81-2.81-2.28Zm8.79-8.82a4.33,4.33,0,0,1-.5,2,4,4,0,0,1-1.49,1.59,15.12,15.12,0,0,1-7.51,1.53c-.07,0-.13-.12-.19-.34a3,3,0,0,1-.09-.77v-2.13a2.75,2.75,0,0,1,.09-.75c.06-.21.12-.32.19-.32a29.29,29.29,0,0,0,3.77-.21,8.35,8.35,0,0,0,2.81-.86l-.74-8,3.31-.57C155.15,232.77,155.27,235.68,155.27,237.63Zm-3.73,8.82,2.81,2.28-2.24,2.81-2.85-2.28Z"/><path class="cls-1" d="M161.25,218.88c-.76-.1-1.22-.14-1.39-.14a1.35,1.35,0,0,0-1,.3,3.28,3.28,0,0,0-.58,1.33L156,219.8a7.93,7.93,0,0,1,1.46-3.47,3.21,3.21,0,0,1,2.45-.9,16,16,0,0,1,2,.17,29.49,29.49,0,0,0,3.88.29h1.85l-.68,3.31h-1.6A28.23,28.23,0,0,1,161.25,218.88ZM160,222.44l3.45-.61.18,21-2.88.39Z"/><path class="cls-1" d="M68.36,232.33,68,230l10.74-3.06.36,2.38Z"/></g></g></svg>