<svg width="141" height="28" viewBox="0 0 141 28" fill="none" xmlns="http://www.w3.org/2000/svg">
<path d="M115.615 0H112V3.49067H115.615V0Z" fill="#1a1f2d"/>
<path d="M122.873 0H119.258V3.49067H122.873V0Z" fill="#1a1f2d"/>
<path d="M130.115 0H126.5V3.49067H130.115V0Z" fill="#1a1f2d"/>
<path d="M115.615 6.98145H112V10.4721H115.615V6.98145Z" fill="#1a1f2d"/>
<path d="M115.615 13.9961H112V27.9921H115.615V13.9961Z" fill="#1a1f2d"/>
<path d="M119.232 10.4717H115.616V13.9623H119.232V10.4717Z" fill="#1a1f2d"/>
<path d="M122.873 17.5029H119.258V20.9936H122.873V17.5029Z" fill="#1a1f2d"/>
<path d="M126.493 13.9609H122.878V17.4516H126.493V13.9609Z" fill="#1a1f2d"/>
<path d="M140.994 24.5098H115.616V28.0004H140.994V24.5098Z" fill="#1a1f2d"/>
<path d="M133.732 6.98145H130.116V20.9948H133.732V6.98145Z" fill="#1a1f2d"/>
<path d="M140.993 10.4971H137.378V24.5104H140.993V10.4971Z" fill="#1a1f2d"/>
<path d="M126.5 6.98145H119.258V10.4721H126.5V6.98145Z" fill="#1a1f2d"/>
<path d="M140.993 3.49023H137.378V6.9809H140.993V3.49023Z" fill="#1a1f2d"/>
<path d="M141 0H133.758V3.49067H141V0Z" fill="#1a1f2d"/>
<path d="M3.88204 11.015C3.50628 11.015 3.16568 10.9325 2.86022 10.7677C2.55477 10.6053 2.30749 10.3725 2.1184 10.0695C1.98749 9.86346 1.89416 9.63437 1.8384 9.38224C1.79477 9.1883 1.77295 8.98467 1.77295 8.77134C1.77295 8.70831 1.7778 8.58952 1.78749 8.41497C1.79719 8.238 1.84689 7.99315 1.93659 7.68043C2.02628 7.36528 2.15113 7.04043 2.31113 6.70588L2.92931 7.00043C2.79356 7.28164 2.68568 7.55194 2.60568 7.81134C2.5281 8.06831 2.47962 8.31194 2.46022 8.54224C2.45537 8.61982 2.45295 8.69497 2.45295 8.7677C2.45295 8.91315 2.46871 9.06709 2.50022 9.22952C2.53174 9.39437 2.59719 9.55437 2.69659 9.70952C2.82265 9.90588 2.98749 10.0574 3.19113 10.1641C3.39477 10.2732 3.62507 10.3277 3.88204 10.3277H4.73659C5.01537 10.3277 5.24204 10.2974 5.41659 10.2368C5.59356 10.1786 5.73053 10.0962 5.82749 9.98952C5.92689 9.88285 5.99356 9.75315 6.02749 9.60043C6.06386 9.45012 6.08204 9.28285 6.08204 9.09861V6.54224H6.76931V7.67315C6.77174 7.77012 6.78871 7.85861 6.82022 7.93861C6.85416 8.01618 6.89901 8.08285 6.95477 8.13861C7.01052 8.19437 7.07719 8.238 7.15477 8.26952C7.23477 8.29861 7.32325 8.31315 7.42022 8.31315H7.56204V9.00043H7.42022C7.18265 9.00043 6.96568 8.94831 6.76931 8.84406V9.09861C6.76931 9.73861 6.59962 10.2174 6.26022 10.535C5.92083 10.855 5.41295 11.015 4.73659 11.015H3.88204ZM3.90749 6.26952L4.52568 5.64406L5.1584 6.27679L4.53295 6.90224L3.90749 6.26952Z" fill="#1a1f2d"/>
<path d="M9.01161 8.31315C9.03828 8.31315 9.05161 8.32285 9.05161 8.34224V8.96406C9.05161 8.98831 9.03828 9.00043 9.01161 9.00043H7.45525C7.43101 9.00043 7.41889 8.98831 7.41889 8.96406V8.34224C7.41889 8.32285 7.43101 8.31315 7.45525 8.31315H9.01161Z" fill="#1a1f2d"/>
<path d="M10.496 8.31315C10.5227 8.31315 10.536 8.32285 10.536 8.34224V8.96406C10.536 8.98831 10.5227 9.00043 10.496 9.00043H8.93963C8.91538 9.00043 8.90326 8.98831 8.90326 8.96406V8.34224C8.90326 8.32285 8.91538 8.31315 8.93963 8.31315H10.496Z" fill="#1a1f2d"/>
<path d="M11.9804 8.31315C12.007 8.31315 12.0204 8.32285 12.0204 8.34224V8.96406C12.0204 8.98831 12.007 9.00043 11.9804 9.00043H10.424C10.3998 9.00043 10.3876 8.98831 10.3876 8.96406V8.34224C10.3876 8.32285 10.3998 8.31315 10.424 8.31315H11.9804Z" fill="#1a1f2d"/>
<path d="M13.4647 8.31315C13.4914 8.31315 13.5047 8.32285 13.5047 8.34224V8.96406C13.5047 8.98831 13.4914 9.00043 13.4647 9.00043H11.9084C11.8841 9.00043 11.872 8.98831 11.872 8.96406V8.34224C11.872 8.32285 11.8841 8.31315 11.9084 8.31315H13.4647Z" fill="#1a1f2d"/>
<path d="M14.9491 8.31315C14.9758 8.31315 14.9891 8.32285 14.9891 8.34224V8.96406C14.9891 8.98831 14.9758 9.00043 14.9491 9.00043H13.3928C13.3685 9.00043 13.3564 8.98831 13.3564 8.96406V8.34224C13.3564 8.32285 13.3685 8.31315 13.3928 8.31315H14.9491Z" fill="#1a1f2d"/>
<path d="M14.697 4.81134L16.4425 4.16406V4.5677L14.697 5.22224V4.81134Z" fill="#1a1f2d"/>
<path d="M16.4335 8.31315C16.4602 8.31315 16.4735 8.32285 16.4735 8.34224V8.96406C16.4735 8.98831 16.4602 9.00043 16.4335 9.00043H14.8771C14.8529 9.00043 14.8408 8.98831 14.8408 8.96406V8.34224C14.8408 8.32285 14.8529 8.31315 14.8771 8.31315H16.4335Z" fill="#1a1f2d"/>
<path d="M17.9179 8.31315C17.9445 8.31315 17.9579 8.32285 17.9579 8.34224V8.96406C17.9579 8.98831 17.9445 9.00043 17.9179 9.00043H16.3615C16.3373 9.00043 16.3251 8.98831 16.3251 8.96406V8.34224C16.3251 8.32285 16.3373 8.31315 16.3615 8.31315H17.9179Z" fill="#1a1f2d"/>
<path d="M19.4022 8.31315C19.4289 8.31315 19.4422 8.32285 19.4422 8.34224V8.96406C19.4422 8.98831 19.4289 9.00043 19.4022 9.00043H17.8459C17.8216 9.00043 17.8095 8.98831 17.8095 8.96406V8.34224C17.8095 8.32285 17.8216 8.31315 17.8459 8.31315H19.4022Z" fill="#1a1f2d"/>
<path d="M20.8866 8.31315C20.9133 8.31315 20.9266 8.32285 20.9266 8.34224V8.96406C20.9266 8.98831 20.9133 9.00043 20.8866 9.00043H19.3302C19.306 9.00043 19.2939 8.98831 19.2939 8.96406V8.34224C19.2939 8.32285 19.306 8.31315 19.3302 8.31315H20.8866Z" fill="#1a1f2d"/>
<path d="M27.1674 9.00043C26.9346 9.00043 26.7286 8.9677 26.5492 8.90224C26.3698 8.83437 26.2195 8.73376 26.0983 8.60043H26.0946L26.0401 8.65861C25.9213 8.77255 25.7867 8.85861 25.6364 8.91679C25.4861 8.97255 25.3249 9.00043 25.1528 9.00043C24.6995 9.00043 24.348 8.86952 24.0983 8.6077C23.977 8.73618 23.8377 8.83315 23.6801 8.89861C23.5225 8.96164 23.3625 8.99558 23.2001 9.00043H23.1528C22.7237 8.99315 22.3892 8.86709 22.1492 8.62224C22.1346 8.64164 22.1177 8.65861 22.0983 8.67315C21.8534 8.89134 21.508 9.00043 21.0619 9.00043H20.7783V8.31315H21.0619C21.217 8.31315 21.3419 8.29861 21.4364 8.26952C21.5334 8.24043 21.6086 8.198 21.6619 8.14224C21.7152 8.08406 21.7504 8.01497 21.7674 7.93497C21.7867 7.85255 21.7964 7.75921 21.7964 7.65497V6.54588H22.4837V7.63679C22.4837 7.87194 22.5407 8.04285 22.6546 8.14952C22.7686 8.25618 22.9467 8.31073 23.1892 8.31315C23.2328 8.31073 23.2861 8.30224 23.3492 8.2877C23.4146 8.27315 23.4764 8.24285 23.5346 8.19679C23.5952 8.15073 23.6474 8.08527 23.691 8.00043C23.7346 7.91315 23.7564 7.798 23.7564 7.65497V6.54588H24.4401V7.63679C24.4401 7.87194 24.4958 8.04406 24.6074 8.15315C24.7213 8.25982 24.9031 8.31315 25.1528 8.31315C25.2231 8.31315 25.2934 8.30224 25.3637 8.28043C25.434 8.25861 25.497 8.22224 25.5528 8.17134C25.6086 8.12043 25.6546 8.05497 25.691 7.97497C25.7274 7.89255 25.748 7.79194 25.7528 7.67315V6.54588H26.4401V7.67315C26.4449 7.89618 26.5067 8.05861 26.6255 8.16043C26.7443 8.26224 26.9249 8.31315 27.1674 8.31315H27.3892V9.00043H27.1674ZM24.5928 4.03679L24.0764 4.54224L23.5674 4.03679L24.091 3.51679L24.5928 4.03679ZM24.771 5.68043L24.1964 5.09861L24.7637 4.50952L25.3528 5.09861L24.771 5.68043ZM23.3783 5.67315L22.8037 5.09134L23.371 4.50224L23.9601 5.09134L23.3783 5.67315Z" fill="#1a1f2d"/>
<path d="M29.7743 6.04043C29.7791 6.05497 29.7888 6.09376 29.8034 6.15679C29.8179 6.21982 29.8337 6.29861 29.8506 6.39315C29.87 6.48527 29.8906 6.58831 29.9125 6.70224C29.9343 6.81376 29.9537 6.9277 29.9706 7.04406C29.9876 7.158 30.0022 7.2683 30.0143 7.37497C30.0264 7.48164 30.0325 7.57497 30.0325 7.65497C30.0325 7.8877 29.9937 8.08891 29.9161 8.25861C29.841 8.42588 29.7416 8.56528 29.6179 8.67679C29.4967 8.78588 29.3597 8.86709 29.207 8.92043C29.0543 8.97376 28.9003 9.00043 28.7452 9.00043H27.2397V8.31315H28.7452C28.7816 8.31315 28.8325 8.3083 28.8979 8.29861C28.9658 8.28649 29.0325 8.25861 29.0979 8.21497C29.1658 8.17134 29.224 8.10588 29.2725 8.01861C29.3234 7.93134 29.3488 7.81012 29.3488 7.65497C29.3488 7.60164 29.344 7.53497 29.3343 7.45497C29.327 7.37255 29.3161 7.28527 29.3016 7.19315C29.2894 7.09861 29.2749 7.00285 29.2579 6.90588C29.241 6.80649 29.224 6.71315 29.207 6.62588C29.19 6.53861 29.1743 6.46103 29.1597 6.39315C29.1452 6.32527 29.1331 6.27437 29.1234 6.24043L29.7743 6.04043ZM30.0797 10.3859L29.4906 10.975L28.9234 10.3859L29.4979 9.80406L30.0797 10.3859ZM28.687 10.3932L28.0979 10.9822L27.5306 10.3932L28.1052 9.81134L28.687 10.3932Z" fill="#1a1f2d"/>
<path d="M32.5753 9.00043H31.888V4.35679H32.5753V9.00043ZM33.7643 3.77134H32.008C31.8552 3.77134 31.7268 3.7774 31.6225 3.78952C31.5183 3.80164 31.4298 3.82588 31.3571 3.86224C31.2868 3.89861 31.2286 3.95073 31.1825 4.01861C31.1389 4.08649 31.1001 4.17618 31.0662 4.2877L30.4916 4.11679C30.6031 3.72649 30.8056 3.45861 31.0989 3.31315C31.2225 3.25012 31.3595 3.21012 31.5098 3.19315C31.6601 3.17376 31.8262 3.16406 32.008 3.16406H33.7643V3.77134Z" fill="#1a1f2d"/>
<path d="M41.8018 9.00043C41.9036 9.19921 41.9593 9.38709 41.969 9.56406L41.9727 9.61497C41.9727 9.77255 41.9412 9.92164 41.8781 10.0622C41.8151 10.2029 41.7169 10.3325 41.5836 10.4513C41.4502 10.5701 41.2927 10.6695 41.1108 10.7495C40.929 10.8319 40.7266 10.895 40.5036 10.9386C40.2805 10.9847 40.0454 11.0077 39.7981 11.0077H38.7618C38.3787 11.0077 38.0345 10.9241 37.729 10.7568C37.4236 10.5895 37.1739 10.358 36.9799 10.0622C36.849 9.85376 36.7557 9.62224 36.6999 9.3677C36.6563 9.17134 36.6345 8.96528 36.6345 8.74952C36.6345 8.68649 36.6393 8.5677 36.649 8.39315C36.6587 8.21618 36.7084 7.96891 36.7981 7.65134C36.8902 7.33376 37.0187 7.00528 37.1836 6.66588L37.7945 6.96406C37.523 7.53618 37.369 8.05376 37.3327 8.51679C37.3278 8.59437 37.3254 8.66952 37.3254 8.74224C37.3254 9.11073 37.4066 9.42709 37.569 9.69134C37.6927 9.89255 37.8575 10.0465 38.0636 10.1532C38.2721 10.2598 38.5048 10.3132 38.7618 10.3132H39.7981C39.9339 10.3132 40.0672 10.3022 40.1981 10.2804C40.329 10.261 40.4515 10.2332 40.5654 10.1968C40.6793 10.1604 40.7824 10.1168 40.8745 10.0659C40.9666 10.0174 41.043 9.96285 41.1036 9.90224C41.1666 9.84164 41.2102 9.77618 41.2345 9.70588C41.249 9.66952 41.2563 9.63315 41.2563 9.59679C41.2563 9.56285 41.2502 9.52891 41.2381 9.49497C41.209 9.40043 41.1412 9.32043 41.0345 9.25497C40.9278 9.19194 40.7993 9.14103 40.649 9.10224C40.4987 9.06588 40.3363 9.03921 40.1618 9.02224C39.9872 9.0077 39.8187 9.00043 39.6563 9.00043L39.6818 8.31315H42.8163V9.00043H41.8018Z" fill="#1a1f2d"/>
<path d="M45.5131 8.99315C45.2852 8.99315 45.0828 8.96043 44.9058 8.89497C44.7288 8.82709 44.5797 8.73012 44.4585 8.60406C44.3325 8.73982 44.1858 8.84043 44.0185 8.90588C43.8512 8.96891 43.6828 9.00043 43.5131 9.00043H42.6767V8.31315H43.5131C43.5494 8.31315 43.6015 8.3083 43.6694 8.29861C43.7373 8.28649 43.804 8.25861 43.8694 8.21497C43.9349 8.16891 43.9919 8.10103 44.0403 8.01134C44.0912 7.92164 44.1167 7.79921 44.1167 7.64406V6.54224H44.804V7.62952C44.804 7.86467 44.8585 8.03679 44.9676 8.14588C45.0791 8.25497 45.2609 8.30952 45.5131 8.30952C45.5494 8.30952 45.6003 8.30346 45.6658 8.29134C45.7337 8.27679 45.8003 8.24649 45.8658 8.20043C45.9337 8.15437 45.9919 8.08649 46.0403 7.99679C46.0912 7.90709 46.1167 7.78467 46.1167 7.62952V6.54224H46.8003V7.62952C46.8003 7.86467 46.8573 8.038 46.9712 8.14952C47.0852 8.26103 47.2682 8.31679 47.5203 8.31679C47.5591 8.31679 47.6112 8.30952 47.6767 8.29497C47.7422 8.278 47.8064 8.24527 47.8694 8.19679C47.9349 8.1483 47.9906 8.07921 48.0367 7.98952C48.0828 7.89982 48.1058 7.77982 48.1058 7.62952C48.1058 7.57618 48.1009 7.50952 48.0912 7.42952C48.084 7.34952 48.0731 7.26346 48.0585 7.17134C48.0464 7.07921 48.0319 6.98588 48.0149 6.89134C47.9979 6.79437 47.9809 6.70467 47.964 6.62224C47.947 6.5374 47.9312 6.46224 47.9167 6.39679C47.9022 6.32891 47.89 6.27921 47.8803 6.2477L48.5312 6.04043C48.5361 6.05497 48.5458 6.09376 48.5603 6.15679C48.5749 6.2174 48.5919 6.29376 48.6112 6.38588C48.6306 6.47558 48.65 6.57618 48.6694 6.6877C48.6912 6.79921 48.7106 6.91194 48.7276 7.02588C48.747 7.1374 48.7628 7.24649 48.7749 7.35315C48.787 7.4574 48.7931 7.54952 48.7931 7.62952C48.7931 7.85982 48.7555 8.06103 48.6803 8.23315C48.6052 8.40285 48.507 8.54467 48.3858 8.65861C48.267 8.77012 48.1312 8.85497 47.9785 8.91315C47.8258 8.96891 47.6731 8.998 47.5203 9.00043C47.2876 9.00043 47.0815 8.96649 46.9022 8.89861C46.7252 8.82831 46.5749 8.7277 46.4512 8.59679C46.3252 8.73012 46.1785 8.82952 46.0112 8.89497C45.8464 8.96043 45.6803 8.99315 45.5131 8.99315ZM47.0076 3.90588L46.4912 4.41134L45.9822 3.90588L46.5058 3.38588L47.0076 3.90588ZM47.1858 5.54952L46.6112 4.9677L47.1785 4.37861L47.7676 4.9677L47.1858 5.54952ZM45.7931 5.54224L45.2185 4.96043L45.7858 4.37134L46.3749 4.96043L45.7931 5.54224Z" fill="#1a1f2d"/>
<path d="M48.5307 11.0186V10.3313H49.0325C49.2822 10.3313 49.4979 10.301 49.6798 10.2404C49.864 10.1822 50.0155 10.0913 50.1343 9.9677C50.2555 9.84406 50.344 9.68649 50.3998 9.49497C50.458 9.30346 50.487 9.07558 50.487 8.81134V6.54224H51.1743V8.81134C51.1743 9.158 51.1283 9.46709 51.0361 9.73861C50.9464 10.0125 50.8119 10.2441 50.6325 10.4332C50.4531 10.6222 50.2289 10.7665 49.9598 10.8659C49.6931 10.9677 49.384 11.0186 49.0325 11.0186H48.5307ZM50.178 4.9677L50.7961 4.34224L51.4289 4.97497L50.8034 5.60043L50.178 4.9677Z" fill="#1a1f2d"/>
<path d="M52.4522 10.3204C52.8182 10.3204 53.1261 10.2925 53.3758 10.2368C53.6255 10.181 53.8231 10.095 53.9685 9.97861C54.0946 9.87679 54.1867 9.74709 54.2449 9.58952C54.3055 9.43194 54.3358 9.23558 54.3358 9.00043H53.6667C53.497 9.00043 53.3249 8.97497 53.1504 8.92406C52.9758 8.87315 52.817 8.78952 52.674 8.67315C52.5334 8.55679 52.4182 8.40527 52.3285 8.21861C52.2389 8.02952 52.194 7.79921 52.194 7.5277C52.194 7.3677 52.2073 7.22346 52.234 7.09497C52.2631 6.96406 52.2982 6.8477 52.3395 6.74588C52.3831 6.64406 52.4304 6.55558 52.4813 6.48043C52.5322 6.40527 52.5819 6.34103 52.6304 6.2877C52.7637 6.15437 52.9164 6.05134 53.0885 5.97861C53.2607 5.90588 53.4449 5.86952 53.6413 5.86952C53.8134 5.86952 53.9746 5.89618 54.1249 5.94952C54.2752 6.00285 54.4098 6.08285 54.5285 6.18952C54.8558 6.49497 55.0195 6.97376 55.0195 7.62588V8.31315H55.5649V9.00043H55.0195C55.0195 9.34467 54.9685 9.64043 54.8667 9.8877C54.7673 10.1374 54.6122 10.3459 54.4013 10.5132C54.1879 10.6804 53.9225 10.8041 53.6049 10.8841C53.2898 10.9665 52.9055 11.0077 52.4522 11.0077V10.3204ZM53.6049 6.55679C53.3649 6.55679 53.1782 6.64164 53.0449 6.81134C52.9116 6.98103 52.8449 7.21982 52.8449 7.5277C52.8449 7.84043 52.9395 8.0574 53.1285 8.17861C53.1746 8.2077 53.2219 8.23194 53.2704 8.25134C53.3189 8.2683 53.3661 8.28164 53.4122 8.29134C53.4582 8.29861 53.4995 8.30467 53.5358 8.30952C53.5746 8.31194 53.6061 8.31315 53.6304 8.31315H54.2995V7.62588C54.2995 7.44891 54.2861 7.29982 54.2595 7.17861C54.2328 7.05497 54.1989 6.95315 54.1576 6.87315C54.1164 6.79315 54.0692 6.73255 54.0158 6.69134C53.9649 6.6477 53.914 6.61618 53.8631 6.59679C53.8122 6.5774 53.7637 6.56649 53.7176 6.56406C53.6716 6.55921 53.634 6.55679 53.6049 6.55679Z" fill="#1a1f2d"/>
<path d="M57.0116 8.31315C57.0383 8.31315 57.0516 8.32285 57.0516 8.34224V8.96406C57.0516 8.98831 57.0383 9.00043 57.0116 9.00043H55.4552C55.431 9.00043 55.4189 8.98831 55.4189 8.96406V8.34224C55.4189 8.32285 55.431 8.31315 55.4552 8.31315H57.0116Z" fill="#1a1f2d"/>
<path d="M58.496 8.31315C58.5227 8.31315 58.536 8.32285 58.536 8.34224V8.96406C58.536 8.98831 58.5227 9.00043 58.496 9.00043H56.9396C56.9154 9.00043 56.9033 8.98831 56.9033 8.96406V8.34224C56.9033 8.32285 56.9154 8.31315 56.9396 8.31315H58.496Z" fill="#1a1f2d"/>
<path d="M61.024 8.4877C61.041 8.4877 61.064 8.48649 61.0931 8.48406C61.1246 8.48164 61.1573 8.47194 61.1913 8.45497C61.2276 8.438 61.2628 8.41255 61.2967 8.37861C61.3331 8.34224 61.3646 8.29255 61.3913 8.22952C61.4204 8.16406 61.4434 8.08164 61.4604 7.98224C61.4798 7.88043 61.4895 7.75679 61.4895 7.61134C61.4895 7.58467 61.487 7.54224 61.4822 7.48406C61.4773 7.42588 61.4664 7.36164 61.4495 7.29134C61.4325 7.21861 61.407 7.14467 61.3731 7.06952C61.3416 6.99437 61.2979 6.92528 61.2422 6.86224C61.1864 6.79921 61.1185 6.74831 61.0385 6.70952C60.9585 6.66831 60.8616 6.6477 60.7476 6.6477C60.641 6.6477 60.5501 6.66709 60.4749 6.70588C60.4022 6.74224 60.3404 6.79315 60.2895 6.85861C60.2385 6.92406 60.1961 7.00164 60.1622 7.09134C60.1282 7.17861 60.0967 7.27437 60.0676 7.37861C60.0385 7.48043 60.0095 7.58831 59.9804 7.70224C59.9513 7.81376 59.9173 7.92527 59.8785 8.03679C60.0046 8.09982 60.121 8.15921 60.2276 8.21497C60.3343 8.27073 60.4337 8.31921 60.5258 8.36043C60.6179 8.39921 60.704 8.43073 60.784 8.45497C60.8664 8.47679 60.9464 8.4877 61.024 8.4877ZM60.7476 5.96406C60.9852 5.96406 61.1913 6.01012 61.3658 6.10224C61.5428 6.19194 61.6895 6.31315 61.8058 6.46588C61.9222 6.61861 62.0082 6.79437 62.064 6.99315C62.1222 7.19194 62.1513 7.398 62.1513 7.61134C62.1513 7.84649 62.1307 8.04891 62.0895 8.21861C62.0507 8.3883 61.9985 8.53134 61.9331 8.6477C61.8676 8.76164 61.7937 8.85376 61.7113 8.92406C61.6313 8.99437 61.5488 9.0477 61.464 9.08406C61.3816 9.12043 61.3016 9.14467 61.224 9.15679C61.1464 9.16891 61.0798 9.17497 61.024 9.17497C60.9052 9.17497 60.7913 9.16285 60.6822 9.13861C60.5731 9.11437 60.4616 9.07921 60.3476 9.03315C60.2337 8.98952 60.1137 8.93497 59.9876 8.86952C59.864 8.80406 59.727 8.73012 59.5767 8.6477C59.3779 8.88285 59.1222 9.00043 58.8095 9.00043H58.3913V8.31315H58.8095C58.9016 8.31315 58.9767 8.27921 59.0349 8.21134C59.0955 8.14346 59.1476 8.05497 59.1913 7.94588C59.2349 7.83679 59.2749 7.71194 59.3113 7.57134C59.3476 7.43073 59.3888 7.28649 59.4349 7.13861C59.4834 6.99073 59.5404 6.84649 59.6058 6.70588C59.6713 6.56528 59.7537 6.44043 59.8531 6.33134C59.9549 6.22224 60.0773 6.13376 60.2204 6.06588C60.3658 5.998 60.5416 5.96406 60.7476 5.96406Z" fill="#1a1f2d"/>
<path d="M64.7159 9.00043H64.0286V4.35679H64.7159V9.00043ZM65.905 3.77134H64.1486C63.9959 3.77134 63.8674 3.7774 63.7631 3.78952C63.6589 3.80164 63.5704 3.82588 63.4977 3.86224C63.4274 3.89861 63.3692 3.95073 63.3232 4.01861C63.2795 4.08649 63.2407 4.17618 63.2068 4.2877L62.6322 4.11679C62.7438 3.72649 62.9462 3.45861 63.2395 3.31315C63.3631 3.25012 63.5001 3.21012 63.6504 3.19315C63.8007 3.17376 63.9668 3.16406 64.1486 3.16406H65.905V3.77134Z" fill="#1a1f2d"/>
<path d="M69.5569 11.4004H68.8733V7.63315L69.5351 7.2477C69.6054 7.28649 69.6781 7.32649 69.7533 7.3677C69.8163 7.40164 69.8842 7.43921 69.9569 7.48043C70.0321 7.52164 70.1048 7.55921 70.1751 7.59315C70.2115 7.37497 70.2527 7.17861 70.2987 7.00406C70.3472 6.82709 70.4066 6.66831 70.4769 6.5277C70.7121 6.05497 71.083 5.81861 71.5897 5.81861C71.8103 5.81861 72.0115 5.86467 72.1933 5.95679C72.3775 6.04649 72.5327 6.17861 72.6587 6.35315C72.7654 6.49861 72.8454 6.66588 72.8987 6.85497C72.9545 7.04406 72.9824 7.24527 72.9824 7.45861C72.9824 7.69376 72.9618 7.89618 72.9206 8.06588C72.8818 8.23558 72.8297 8.37861 72.7642 8.49497C72.7012 8.61133 72.6284 8.70467 72.546 8.77497C72.466 8.84285 72.3848 8.89618 72.3024 8.93497C72.22 8.97134 72.14 8.99558 72.0624 9.0077C71.9848 9.01982 71.9181 9.02588 71.8624 9.02588C71.8212 9.02588 71.7678 9.01982 71.7024 9.0077C71.6369 8.99558 71.5484 8.97012 71.4369 8.93134C71.3254 8.89255 71.1848 8.83679 71.0151 8.76406C70.8454 8.69134 70.6357 8.59315 70.386 8.46952C70.2187 8.38709 70.0612 8.3083 69.9133 8.23315C69.7678 8.15558 69.6491 8.09134 69.5569 8.04043V11.4004ZM70.8187 7.91679C71.0248 8.01861 71.1945 8.0974 71.3278 8.15315C71.4612 8.20891 71.5666 8.25134 71.6442 8.28043C71.7218 8.30709 71.7763 8.32406 71.8078 8.33134C71.8394 8.33618 71.8575 8.33861 71.8624 8.33861C71.889 8.33861 71.9266 8.33376 71.9751 8.32406C72.026 8.31437 72.0745 8.28285 72.1206 8.22952C72.1691 8.17376 72.2103 8.08649 72.2442 7.9677C72.2806 7.84891 72.2987 7.67921 72.2987 7.45861C72.2987 7.43194 72.2963 7.38952 72.2915 7.33134C72.289 7.27315 72.2794 7.20891 72.2624 7.13861C72.2478 7.0683 72.2248 6.99558 72.1933 6.92043C72.1642 6.84527 72.123 6.7774 72.0697 6.71679C72.0187 6.65376 71.9533 6.60285 71.8733 6.56406C71.7957 6.52285 71.7012 6.50224 71.5897 6.50224C71.4951 6.50224 71.4103 6.51921 71.3351 6.55315C71.26 6.58709 71.1909 6.65497 71.1278 6.75679C71.0672 6.85861 71.0115 7.00285 70.9606 7.18952C70.9121 7.37376 70.8648 7.61618 70.8187 7.91679Z" fill="#1a1f2d"/>
<path d="M76.1071 9.00043H75.9508C75.718 9.00043 75.5035 8.95437 75.3071 8.86224C75.3071 9.20164 75.2599 9.50467 75.1653 9.77134C75.0708 10.038 74.9326 10.2635 74.7508 10.4477C74.5689 10.6344 74.3447 10.7762 74.078 10.8732C73.8138 10.9701 73.5095 11.0186 73.1653 11.0186H72.6635V10.3313H73.1653C73.415 10.3313 73.6308 10.301 73.8126 10.2404C73.9968 10.1822 74.1483 10.0913 74.2671 9.9677C74.3883 9.84406 74.4768 9.68649 74.5326 9.49497C74.5908 9.30346 74.6199 9.07558 74.6199 8.81134V6.54224H75.3071V7.74588C75.3071 7.88164 75.335 7.98831 75.3908 8.06588C75.4489 8.14103 75.5156 8.19679 75.5908 8.23315C75.6659 8.26952 75.7374 8.29255 75.8053 8.30224C75.8756 8.30952 75.9241 8.31315 75.9508 8.31315H76.1071V9.00043Z" fill="#1a1f2d"/>
<path d="M77.5507 8.31315C77.5773 8.31315 77.5907 8.32285 77.5907 8.34224V8.96406C77.5907 8.98831 77.5773 9.00043 77.5507 9.00043H75.9943C75.9701 9.00043 75.9579 8.98831 75.9579 8.96406V8.34224C75.9579 8.32285 75.9701 8.31315 75.9943 8.31315H77.5507Z" fill="#1a1f2d"/>
<path d="M79.035 8.31315C79.0617 8.31315 79.0751 8.32285 79.0751 8.34224V8.96406C79.0751 8.98831 79.0617 9.00043 79.035 9.00043H77.4787C77.4544 9.00043 77.4423 8.98831 77.4423 8.96406V8.34224C77.4423 8.32285 77.4544 8.31315 77.4787 8.31315H79.035Z" fill="#1a1f2d"/>
<path d="M80.5194 8.31315C80.5461 8.31315 80.5594 8.32285 80.5594 8.34224V8.96406C80.5594 8.98831 80.5461 9.00043 80.5194 9.00043H78.9631C78.9388 9.00043 78.9267 8.98831 78.9267 8.96406V8.34224C78.9267 8.32285 78.9388 8.31315 78.9631 8.31315H80.5194Z" fill="#1a1f2d"/>
<path d="M82.0038 8.31315C82.0305 8.31315 82.0438 8.32285 82.0438 8.34224V8.96406C82.0438 8.98831 82.0305 9.00043 82.0038 9.00043H80.4474C80.4232 9.00043 80.4111 8.98831 80.4111 8.96406V8.34224C80.4111 8.32285 80.4232 8.31315 80.4474 8.31315H82.0038Z" fill="#1a1f2d"/>
<path d="M83.4882 8.31315C83.5148 8.31315 83.5282 8.32285 83.5282 8.34224V8.96406C83.5282 8.98831 83.5148 9.00043 83.4882 9.00043H81.9318C81.9076 9.00043 81.8954 8.98831 81.8954 8.96406V8.34224C81.8954 8.32285 81.9076 8.31315 81.9318 8.31315H83.4882Z" fill="#1a1f2d"/>
<path d="M84.9725 8.31315C84.9992 8.31315 85.0126 8.32285 85.0126 8.34224V8.96406C85.0126 8.98831 84.9992 9.00043 84.9725 9.00043H83.4162C83.3919 9.00043 83.3798 8.98831 83.3798 8.96406V8.34224C83.3798 8.32285 83.3919 8.31315 83.4162 8.31315H84.9725Z" fill="#1a1f2d"/>
<path d="M86.4569 8.31315C86.4836 8.31315 86.4969 8.32285 86.4969 8.34224V8.96406C86.4969 8.98831 86.4836 9.00043 86.4569 9.00043H84.9006C84.8763 9.00043 84.8642 8.98831 84.8642 8.96406V8.34224C84.8642 8.32285 84.8763 8.31315 84.9006 8.31315H86.4569Z" fill="#1a1f2d"/>
<path d="M87.9413 8.31315C87.968 8.31315 87.9813 8.32285 87.9813 8.34224V8.96406C87.9813 8.98831 87.968 9.00043 87.9413 9.00043H86.3849C86.3607 9.00043 86.3486 8.98831 86.3486 8.96406V8.34224C86.3486 8.32285 86.3607 8.31315 86.3849 8.31315H87.9413Z" fill="#1a1f2d"/>
<path d="M89.4257 8.31315C89.4523 8.31315 89.4657 8.32285 89.4657 8.34224V8.96406C89.4657 8.98831 89.4523 9.00043 89.4257 9.00043H87.8693C87.8451 9.00043 87.8329 8.98831 87.8329 8.96406V8.34224C87.8329 8.32285 87.8451 8.31315 87.8693 8.31315H89.4257Z" fill="#1a1f2d"/>
<path d="M91.4373 8.10588C91.5464 8.06709 91.6446 8.01861 91.7319 7.96043C91.8191 7.90224 91.8931 7.83437 91.9537 7.75679C92.0167 7.67921 92.0652 7.59073 92.0991 7.49134C92.1331 7.39194 92.1501 7.27921 92.1501 7.15315C92.1501 7.08043 92.1307 7.0077 92.0919 6.93497C92.0555 6.86224 92.0046 6.79679 91.9391 6.73861C91.8761 6.68043 91.8034 6.63315 91.721 6.59679C91.6385 6.56043 91.5525 6.54224 91.4628 6.54224C91.361 6.54224 91.2628 6.55921 91.1682 6.59315C91.0761 6.62467 90.9937 6.66831 90.921 6.72406C90.8507 6.7774 90.7949 6.84164 90.7537 6.91679C90.7125 6.99194 90.6919 7.07073 90.6919 7.15315V7.19679C90.6919 7.30103 90.7076 7.40043 90.7391 7.49497C90.7731 7.58709 90.8228 7.67194 90.8882 7.74952C90.9537 7.82709 91.0325 7.89618 91.1246 7.95679C91.2191 8.01497 91.3234 8.06467 91.4373 8.10588ZM91.4628 5.85497C91.6713 5.85497 91.8579 5.89134 92.0228 5.96406C92.1876 6.03679 92.327 6.13376 92.441 6.25497C92.5549 6.37376 92.6422 6.51194 92.7028 6.66952C92.7634 6.82467 92.7937 6.98588 92.7937 7.15315C92.7937 7.3883 92.7598 7.60043 92.6919 7.78952C92.6264 7.97861 92.5258 8.14588 92.3901 8.29134C92.5743 8.30588 92.7731 8.31315 92.9864 8.31315H93.4082V9.00043H92.9864C92.3658 9.00043 91.847 8.94224 91.4301 8.82588C91.2167 8.88406 90.9719 8.9277 90.6955 8.95679C90.4191 8.98588 90.104 9.00043 89.7501 9.00043H89.3173V8.31315H89.7501C90.0143 8.31315 90.2507 8.30588 90.4591 8.29134C90.3161 8.14346 90.2094 7.97497 90.1391 7.78588C90.0688 7.59437 90.0337 7.38346 90.0337 7.15315C90.0337 6.97618 90.07 6.80891 90.1428 6.65134C90.2179 6.49376 90.3197 6.35558 90.4482 6.23679C90.5791 6.118 90.7307 6.02467 90.9028 5.95679C91.0773 5.88891 91.264 5.85497 91.4628 5.85497ZM90.8228 4.32406L91.441 3.69861L92.0737 4.33134L91.4482 4.95679L90.8228 4.32406Z" fill="#1a1f2d"/>
<path d="M97.2335 8.31315V9.00043H96.5972C96.3766 9.00043 96.1814 8.96891 96.0117 8.90588C95.8445 8.84285 95.7099 8.74831 95.6081 8.62224C95.356 8.87437 94.9826 9.00043 94.4881 9.00043H93.2517V8.31315H94.4881C94.6626 8.31315 94.8008 8.29618 94.9026 8.26224C95.0045 8.22588 95.0808 8.18224 95.1317 8.13134C95.1851 8.078 95.219 8.01982 95.2335 7.95679C95.2505 7.89134 95.259 7.82952 95.259 7.77134V6.54224H95.9426V7.74588C95.9426 7.83558 95.956 7.91194 95.9826 7.97497C96.0117 8.038 96.0469 8.09134 96.0881 8.13497C96.1293 8.17618 96.1754 8.20891 96.2263 8.23315C96.2796 8.2574 96.3305 8.27558 96.379 8.2877C96.4275 8.29982 96.4711 8.30709 96.5099 8.30952C96.5487 8.31194 96.5778 8.31315 96.5972 8.31315H97.2335ZM96.0554 5.65497L95.4808 5.07315L96.0481 4.48406L96.6372 5.07315L96.0554 5.65497ZM94.6626 5.6477L94.0881 5.06588L94.6554 4.47679L95.2445 5.06588L94.6626 5.6477Z" fill="#1a1f2d"/>
<path d="M97.0751 8.31315H97.1333C97.3879 8.31315 97.5842 8.29012 97.7224 8.24406C97.863 8.19558 97.9648 8.13618 98.0279 8.06588C98.0909 7.99315 98.1273 7.91437 98.137 7.82952C98.1491 7.74467 98.1551 7.66346 98.1551 7.58588V3.81134H98.8388V7.58588C98.8388 7.67073 98.8461 7.75679 98.8606 7.84406C98.8776 7.92891 98.9091 8.00649 98.9551 8.07679C99.0036 8.14709 99.0703 8.20406 99.1551 8.2477C99.24 8.29134 99.3527 8.31315 99.4933 8.31315H99.5515V9.00043H99.4933C99.3066 9.00043 99.1297 8.96649 98.9624 8.89861C98.7976 8.83073 98.6412 8.72164 98.4933 8.57134C98.2145 8.8574 97.7612 9.00043 97.1333 9.00043H97.0751V8.31315Z" fill="#1a1f2d"/>
<path d="M101.931 6.04043C101.935 6.05497 101.945 6.09376 101.96 6.15679C101.974 6.21982 101.99 6.29861 102.007 6.39315C102.026 6.48527 102.047 6.58831 102.069 6.70224C102.091 6.81376 102.11 6.9277 102.127 7.04406C102.144 7.158 102.158 7.2683 102.171 7.37497C102.183 7.48164 102.189 7.57497 102.189 7.65497C102.189 7.8877 102.15 8.08891 102.072 8.25861C101.997 8.42588 101.898 8.56528 101.774 8.67679C101.653 8.78588 101.516 8.86709 101.363 8.92043C101.211 8.97376 101.057 9.00043 100.901 9.00043H99.396V8.31315H100.901C100.938 8.31315 100.989 8.3083 101.054 8.29861C101.122 8.28649 101.189 8.25861 101.254 8.21497C101.322 8.17134 101.38 8.10588 101.429 8.01861C101.48 7.93134 101.505 7.81012 101.505 7.65497C101.505 7.60164 101.5 7.53497 101.491 7.45497C101.483 7.37255 101.472 7.28527 101.458 7.19315C101.446 7.09861 101.431 7.00285 101.414 6.90588C101.397 6.80649 101.38 6.71315 101.363 6.62588C101.346 6.53861 101.331 6.46103 101.316 6.39315C101.301 6.32527 101.289 6.27437 101.28 6.24043L101.931 6.04043ZM101.138 11.8695L100.614 11.3495L101.123 10.8441L101.64 11.3495L101.138 11.8695ZM102.4 10.2877L101.811 10.8768L101.243 10.2877L101.818 9.70588L102.4 10.2877ZM101.007 10.295L100.418 10.8841L99.8505 10.295L100.425 9.71315L101.007 10.295Z" fill="#1a1f2d"/>
<path d="M2.47628 25.6818C2.10052 25.6818 1.75991 25.5993 1.45446 25.4345C1.14901 25.2721 0.901733 25.0393 0.712642 24.7363C0.581733 24.5303 0.4884 24.3012 0.432642 24.049C0.389006 23.8551 0.367188 23.6515 0.367188 23.4381C0.367188 23.3751 0.372036 23.2563 0.381733 23.0818C0.39143 22.9048 0.441127 22.66 0.530824 22.3472C0.620521 22.0321 0.745369 21.7072 0.905369 21.3727L1.52355 21.6672C1.38779 21.9484 1.27991 22.2187 1.19991 22.4781C1.12234 22.7351 1.07385 22.9787 1.05446 23.209C1.04961 23.2866 1.04719 23.3618 1.04719 23.4345C1.04719 23.58 1.06295 23.7339 1.09446 23.8963C1.12598 24.0612 1.19143 24.2212 1.29082 24.3763C1.41688 24.5727 1.58173 24.7242 1.78537 24.8309C1.98901 24.94 2.21931 24.9945 2.47628 24.9945H3.33082C3.60961 24.9945 3.83628 24.9642 4.01082 24.9036C4.18779 24.8454 4.32476 24.763 4.42173 24.6563C4.52113 24.5496 4.58779 24.42 4.62173 24.2672C4.6581 24.1169 4.67628 23.9496 4.67628 23.7654V21.209H5.36355V22.34C5.36598 22.4369 5.38295 22.5254 5.41446 22.6054C5.4484 22.683 5.49325 22.7496 5.54901 22.8054C5.60476 22.8612 5.67143 22.9048 5.74901 22.9363C5.82901 22.9654 5.91749 22.9799 6.01446 22.9799H6.15628V23.6672H6.01446C5.77688 23.6672 5.55991 23.6151 5.36355 23.5109V23.7654C5.36355 24.4054 5.19385 24.8842 4.85446 25.2018C4.51507 25.5218 4.00719 25.6818 3.33082 25.6818H2.47628ZM2.50173 20.9363L3.11992 20.3109L3.75264 20.9436L3.12719 21.569L2.50173 20.9363Z" fill="#1a1f2d"/>
<path d="M8.84949 23.66C8.62161 23.66 8.41919 23.6272 8.24222 23.5618C8.06525 23.4939 7.91616 23.3969 7.79494 23.2709C7.66888 23.4066 7.52222 23.5072 7.35494 23.5727C7.18767 23.6357 7.01919 23.6672 6.84949 23.6672H6.01312V22.9799H6.84949C6.88585 22.9799 6.93797 22.9751 7.00585 22.9654C7.07373 22.9533 7.1404 22.9254 7.20585 22.8818C7.27131 22.8357 7.32828 22.7678 7.37676 22.6781C7.42767 22.5884 7.45312 22.466 7.45312 22.3109V21.209H8.1404V22.2963C8.1404 22.5315 8.19494 22.7036 8.30403 22.8127C8.41555 22.9218 8.59737 22.9763 8.84949 22.9763C8.88585 22.9763 8.93676 22.9703 9.00222 22.9581C9.0701 22.9436 9.13676 22.9133 9.20222 22.8672C9.27009 22.8212 9.32828 22.7533 9.37676 22.6636C9.42767 22.5739 9.45313 22.4515 9.45313 22.2963V21.209H10.1368V22.2963C10.1368 22.5315 10.1937 22.7048 10.3077 22.8163C10.4216 22.9278 10.6046 22.9836 10.8568 22.9836C10.8955 22.9836 10.9477 22.9763 11.0131 22.9618C11.0786 22.9448 11.1428 22.9121 11.2059 22.8636C11.2713 22.8151 11.3271 22.746 11.3731 22.6563C11.4192 22.5666 11.4422 22.4466 11.4422 22.2963C11.4422 22.243 11.4374 22.1763 11.4277 22.0963C11.4204 22.0163 11.4095 21.9303 11.3949 21.8381C11.3828 21.746 11.3683 21.6527 11.3513 21.5581C11.3343 21.4612 11.3174 21.3715 11.3004 21.289C11.2834 21.2042 11.2677 21.129 11.2531 21.0636C11.2386 20.9957 11.2265 20.946 11.2168 20.9145L11.8677 20.7072C11.8725 20.7218 11.8822 20.7606 11.8968 20.8236C11.9113 20.8842 11.9283 20.9606 11.9477 21.0527C11.9671 21.1424 11.9865 21.243 12.0059 21.3545C12.0277 21.466 12.0471 21.5787 12.064 21.6927C12.0834 21.8042 12.0992 21.9133 12.1113 22.0199C12.1234 22.1242 12.1295 22.2163 12.1295 22.2963C12.1295 22.5266 12.0919 22.7278 12.0168 22.9C11.9416 23.0696 11.8434 23.2115 11.7222 23.3254C11.6034 23.4369 11.4677 23.5218 11.3149 23.58C11.1622 23.6357 11.0095 23.6648 10.8568 23.6672C10.624 23.6672 10.418 23.6333 10.2386 23.5654C10.0616 23.4951 9.91131 23.3945 9.78767 23.2636C9.66161 23.3969 9.51494 23.4963 9.34767 23.5618C9.18282 23.6272 9.01676 23.66 8.84949 23.66ZM10.344 18.5727L9.82767 19.0781L9.31858 18.5727L9.84222 18.0527L10.344 18.5727ZM10.5222 20.2163L9.94767 19.6345L10.5149 19.0454L11.104 19.6345L10.5222 20.2163ZM9.12949 20.209L8.55494 19.6272L9.12222 19.0381L9.71131 19.6272L9.12949 20.209Z" fill="#1a1f2d"/>
<path d="M13.2564 24.9872C13.6225 24.9872 13.9304 24.9593 14.1801 24.9036C14.4298 24.8478 14.6273 24.7618 14.7728 24.6454C14.8988 24.5436 14.991 24.4139 15.0491 24.2563C15.1098 24.0987 15.1401 23.9024 15.1401 23.6672H14.471C14.3013 23.6672 14.1291 23.6418 13.9546 23.5909C13.7801 23.54 13.6213 23.4563 13.4782 23.34C13.3376 23.2236 13.2225 23.0721 13.1328 22.8854C13.0431 22.6963 12.9982 22.466 12.9982 22.1945C12.9982 22.0345 13.0116 21.8903 13.0382 21.7618C13.0673 21.6309 13.1025 21.5145 13.1437 21.4127C13.1873 21.3109 13.2346 21.2224 13.2855 21.1472C13.3364 21.0721 13.3861 21.0078 13.4346 20.9545C13.5679 20.8212 13.7207 20.7181 13.8928 20.6454C14.0649 20.5727 14.2491 20.5363 14.4455 20.5363C14.6176 20.5363 14.7788 20.563 14.9291 20.6163C15.0795 20.6696 15.214 20.7496 15.3328 20.8563C15.6601 21.1618 15.8237 21.6406 15.8237 22.2927V23.6672C15.8237 24.0115 15.7728 24.3072 15.671 24.5545C15.5716 24.8042 15.4164 25.0127 15.2055 25.18C14.9922 25.3472 14.7267 25.4709 14.4091 25.5509C14.094 25.6333 13.7098 25.6745 13.2564 25.6745V24.9872ZM14.4455 21.2236C14.2055 21.2236 14.0188 21.3084 13.8855 21.4781C13.7522 21.6478 13.6855 21.8866 13.6855 22.1945C13.6855 22.5072 13.7801 22.7242 13.9691 22.8454C14.0152 22.8745 14.0625 22.8987 14.111 22.9181C14.1595 22.9351 14.2067 22.9484 14.2528 22.9581C14.2988 22.9654 14.3401 22.9715 14.3764 22.9763C14.4152 22.9787 14.4467 22.9799 14.471 22.9799H15.1401V22.2927C15.1401 22.1157 15.1267 21.9666 15.1001 21.8454C15.0734 21.7218 15.0395 21.62 14.9982 21.54C14.957 21.46 14.9098 21.3993 14.8564 21.3581C14.8055 21.3145 14.7546 21.283 14.7037 21.2636C14.6528 21.2442 14.6043 21.2333 14.5582 21.2309C14.5122 21.226 14.4746 21.2236 14.4455 21.2236Z" fill="#1a1f2d"/>
<path d="M16.2812 25.6854V24.9981H16.783C17.0327 24.9981 17.2484 24.9678 17.4303 24.9072C17.6145 24.849 17.766 24.7581 17.8848 24.6345C18.006 24.5109 18.0945 24.3533 18.1503 24.1618C18.2084 23.9703 18.2375 23.7424 18.2375 23.4781V21.209H18.9248V23.4781C18.9248 23.8248 18.8787 24.1339 18.7866 24.4054C18.6969 24.6793 18.5624 24.9109 18.383 25.1C18.2036 25.289 17.9793 25.4333 17.7103 25.5327C17.4436 25.6345 17.1345 25.6854 16.783 25.6854H16.2812Z" fill="#1a1f2d"/>
<path d="M21.1903 23.6672C20.9721 23.6672 20.7709 23.6345 20.5866 23.569C20.4048 23.5012 20.246 23.409 20.1103 23.2927C19.9769 23.1739 19.8727 23.0345 19.7975 22.8745C19.7224 22.7121 19.6848 22.5363 19.6848 22.3472C19.6848 22.1048 19.7163 21.8915 19.7793 21.7072C19.8448 21.5206 19.9272 21.3533 20.0266 21.2054C20.126 21.0551 20.2351 20.9181 20.3539 20.7945C20.4727 20.6709 20.5866 20.5496 20.6957 20.4309L20.4703 20.18L20.9793 19.7181C21.1054 19.8587 21.2351 20.0006 21.3684 20.1436C21.5042 20.2842 21.6363 20.4272 21.7648 20.5727C21.8933 20.7157 22.0133 20.8599 22.1248 21.0054C22.2387 21.1484 22.3381 21.2927 22.423 21.4381C22.5078 21.5812 22.5757 21.7242 22.6266 21.8672C22.6727 22.0054 22.6957 22.1412 22.6957 22.2745V22.2963C22.6933 22.4927 22.6533 22.6769 22.5757 22.849C22.5006 23.0187 22.3903 23.169 22.2448 23.3C22.109 23.4163 21.9503 23.5072 21.7684 23.5727C21.589 23.6357 21.3963 23.6672 21.1903 23.6672ZM21.143 20.9218C21.0509 21.026 20.9587 21.1303 20.8666 21.2345C20.7745 21.3363 20.6921 21.4442 20.6193 21.5581C20.5466 21.6721 20.4872 21.7933 20.4412 21.9218C20.3951 22.0503 20.3721 22.1921 20.3721 22.3472C20.3721 22.4563 20.3951 22.5509 20.4412 22.6309C20.4896 22.7084 20.5515 22.7739 20.6266 22.8272C20.7042 22.8781 20.7915 22.9169 20.8884 22.9436C20.9878 22.9678 21.0884 22.9799 21.1903 22.9799C21.3139 22.9799 21.4254 22.9642 21.5248 22.9327C21.6266 22.8987 21.7127 22.8515 21.783 22.7909C21.8557 22.7303 21.9115 22.6587 21.9503 22.5763C21.989 22.4915 22.0084 22.3981 22.0084 22.2963C22.0084 22.1751 21.983 22.0563 21.9321 21.9399C21.8812 21.8212 21.8145 21.7048 21.7321 21.5909C21.6521 21.4769 21.56 21.3642 21.4557 21.2527C21.3515 21.1412 21.2472 21.0309 21.143 20.9218Z" fill="#1a1f2d"/>
<path d="M27.6702 22.9799V23.6672H27.5357C27.1745 23.6672 26.8411 23.5169 26.5357 23.2163C26.3539 23.4612 26.0351 23.6163 25.5793 23.6818C25.4945 23.6939 25.4048 23.7036 25.3102 23.7109C25.2157 23.7181 25.1175 23.7218 25.0157 23.7218C24.892 23.7218 24.7672 23.7157 24.6411 23.7036C24.5151 23.6939 24.3914 23.6781 24.2702 23.6563C24.1514 23.6321 24.0363 23.6018 23.9248 23.5654C23.8133 23.5266 23.7127 23.4818 23.623 23.4309L23.3248 23.2563L23.6666 22.6563L23.9684 22.8309C24.0533 22.8793 24.1563 22.9193 24.2775 22.9509C24.4011 22.9799 24.532 23.0006 24.6702 23.0127C24.7745 23.0224 24.8787 23.0272 24.983 23.0272C25.0193 23.0272 25.0811 23.0272 25.1684 23.0272C25.2557 23.0248 25.3599 23.0151 25.4811 22.9981C25.6217 22.9763 25.7369 22.946 25.8266 22.9072C25.9187 22.866 25.9769 22.82 26.0011 22.769C26.023 22.7448 26.0339 22.7145 26.0339 22.6781C26.0339 22.6539 26.0254 22.6151 26.0084 22.5618C25.9914 22.506 25.9539 22.4333 25.8957 22.3436L24.532 20.2672L25.1102 19.889L26.5211 22.0418C26.5939 22.146 26.6666 22.2539 26.7393 22.3654C26.8145 22.4745 26.8933 22.5751 26.9757 22.6672C27.0581 22.7569 27.1442 22.8321 27.2339 22.8927C27.326 22.9509 27.4266 22.9799 27.5357 22.9799H27.6702Z" fill="#1a1f2d"/>
<path d="M30.6118 22.9799V23.6672H30.3282C30.1076 23.6672 29.9125 23.6357 29.7428 23.5727C29.5755 23.5096 29.4409 23.4151 29.3391 23.289C29.087 23.5412 28.7137 23.6672 28.2191 23.6672H27.5209V22.9799H28.2191C28.3937 22.9799 28.5318 22.963 28.6337 22.929C28.7355 22.8927 28.8118 22.849 28.8628 22.7981C28.9161 22.7448 28.95 22.6866 28.9646 22.6236C28.9815 22.5581 28.99 22.4963 28.99 22.4381V21.209H29.6737V22.4127C29.6737 22.5024 29.687 22.5787 29.7137 22.6418C29.7403 22.7048 29.7743 22.7581 29.8155 22.8018C29.8591 22.843 29.9064 22.8757 29.9573 22.9C30.0106 22.9242 30.0615 22.9424 30.11 22.9545C30.1585 22.9666 30.2021 22.9739 30.2409 22.9763C30.2797 22.9787 30.3088 22.9799 30.3282 22.9799H30.6118ZM28.4482 19.5327L29.0664 18.9072L29.6991 19.54L29.0737 20.1654L28.4482 19.5327Z" fill="#1a1f2d"/>
<path d="M32.9935 20.7072C32.9984 20.7218 33.0081 20.7606 33.0226 20.8236C33.0372 20.8866 33.0529 20.9654 33.0699 21.0599C33.0893 21.1521 33.1099 21.2551 33.1317 21.369C33.1535 21.4806 33.1729 21.5945 33.1899 21.7109C33.2069 21.8248 33.2214 21.9351 33.2335 22.0418C33.2456 22.1484 33.2517 22.2418 33.2517 22.3218C33.2517 22.5545 33.2129 22.7557 33.1353 22.9254C33.0602 23.0927 32.9608 23.2321 32.8372 23.3436C32.716 23.4527 32.579 23.5339 32.4263 23.5872C32.2735 23.6406 32.1196 23.6672 31.9644 23.6672H30.459V22.9799H31.9644C32.0008 22.9799 32.0517 22.9751 32.1172 22.9654C32.185 22.9533 32.2517 22.9254 32.3172 22.8818C32.385 22.8381 32.4432 22.7727 32.4917 22.6854C32.5426 22.5981 32.5681 22.4769 32.5681 22.3218C32.5681 22.2684 32.5632 22.2018 32.5535 22.1218C32.5463 22.0393 32.5353 21.9521 32.5208 21.86C32.5087 21.7654 32.4941 21.6696 32.4772 21.5727C32.4602 21.4733 32.4432 21.38 32.4263 21.2927C32.4093 21.2054 32.3935 21.1278 32.379 21.0599C32.3644 20.9921 32.3523 20.9412 32.3426 20.9072L32.9935 20.7072ZM33.299 25.0527L32.7099 25.6418L32.1426 25.0527L32.7172 24.4709L33.299 25.0527ZM31.9062 25.0599L31.3172 25.649L30.7499 25.0599L31.3244 24.4781L31.9062 25.0599Z" fill="#1a1f2d"/>
<path d="M35.7945 23.6672H35.1072V19.0236H35.7945V23.6672ZM36.9836 18.4381H35.2272C35.0745 18.4381 34.946 18.4442 34.8418 18.4563C34.7375 18.4684 34.649 18.4927 34.5763 18.529C34.506 18.5654 34.4478 18.6175 34.4018 18.6854C34.3581 18.7533 34.3193 18.843 34.2854 18.9545L33.7109 18.7836C33.8224 18.3933 34.0248 18.1254 34.3181 17.98C34.4418 17.9169 34.5787 17.8769 34.729 17.86C34.8793 17.8406 35.0454 17.8309 35.2272 17.8309H36.9836V18.4381Z" fill="#1a1f2d"/>
<path d="M40.377 24.9799C40.6194 24.9799 40.8291 24.9581 41.0061 24.9145C41.1855 24.8733 41.3334 24.8066 41.4497 24.7145C41.5661 24.6224 41.6522 24.5024 41.7079 24.3545C41.7637 24.2066 41.7916 24.0272 41.7916 23.8163C41.5588 23.7557 41.331 23.6951 41.1079 23.6345C41.0134 23.6103 40.914 23.5848 40.8097 23.5581C40.7055 23.529 40.6013 23.5012 40.497 23.4745C40.3952 23.4454 40.2946 23.4187 40.1952 23.3945C40.0982 23.3703 40.0085 23.3472 39.9261 23.3254C39.8194 23.066 39.7661 22.8103 39.7661 22.5581C39.7661 22.5436 39.7673 22.466 39.7697 22.3254C39.7746 22.1848 39.8267 21.9993 39.9261 21.769C40.0255 21.5387 40.1661 21.3327 40.3479 21.1509C40.5297 20.9666 40.7394 20.82 40.977 20.7109C41.2146 20.6018 41.474 20.5351 41.7552 20.5109C41.811 20.506 41.8679 20.5036 41.9261 20.5036C42.154 20.5036 42.3879 20.5387 42.6279 20.609L42.457 21.2672C42.2922 21.2163 42.1249 21.1921 41.9552 21.1945C41.7855 21.1945 41.6219 21.2187 41.4643 21.2672C41.3091 21.3133 41.1649 21.3812 41.0316 21.4709C40.8982 21.5606 40.7843 21.6684 40.6897 21.7945C40.5976 21.9181 40.531 22.0575 40.4897 22.2127C40.4607 22.3145 40.4461 22.42 40.4461 22.529C40.4461 22.5921 40.451 22.6551 40.4607 22.7181L41.8534 23.0636C42.0473 23.1169 42.1928 23.2042 42.2897 23.3254C42.3867 23.4466 42.4352 23.5945 42.4352 23.769C42.4352 24.0866 42.3976 24.3642 42.3225 24.6018C42.2473 24.8418 42.1273 25.0406 41.9625 25.1981C41.7976 25.3557 41.5843 25.4745 41.3225 25.5545C41.0631 25.6345 40.7479 25.6745 40.377 25.6745H39.5734C39.3891 25.6745 39.211 25.6515 39.0388 25.6054C38.8667 25.5593 38.7043 25.4951 38.5516 25.4127C38.3988 25.3303 38.2582 25.2309 38.1297 25.1145C38.0013 24.9981 37.8885 24.8696 37.7916 24.729C37.6776 24.5448 37.5916 24.3424 37.5334 24.1218C37.4752 23.9012 37.4461 23.6684 37.4461 23.4236C37.4461 23.1206 37.4934 22.7945 37.5879 22.4454C37.6849 22.0939 37.8255 21.723 38.0097 21.3327C38.1188 21.3836 38.2207 21.4333 38.3152 21.4818C38.4097 21.5278 38.5091 21.5763 38.6134 21.6272C38.2934 22.3109 38.1334 22.9036 38.1334 23.4054C38.1334 23.5848 38.1552 23.7557 38.1988 23.9181C38.2425 24.0806 38.3031 24.2272 38.3807 24.3581C38.5043 24.5521 38.6716 24.7036 38.8825 24.8127C39.0934 24.9242 39.3237 24.9799 39.5734 24.9799H40.377Z" fill="#1a1f2d"/>
<path d="M43.0624 25.6854V24.9981H43.5642C43.8139 24.9981 44.0297 24.9678 44.2115 24.9072C44.3957 24.849 44.5473 24.7581 44.6661 24.6345C44.7873 24.5109 44.8757 24.3533 44.9315 24.1618C44.9897 23.9703 45.0188 23.7424 45.0188 23.4781V21.209H45.7061V23.4781C45.7061 23.8248 45.66 24.1339 45.5679 24.4054C45.4782 24.6793 45.3436 24.9109 45.1642 25.1C44.9848 25.289 44.7606 25.4333 44.4915 25.5327C44.2248 25.6345 43.9158 25.6854 43.5642 25.6854H43.0624Z" fill="#1a1f2d"/>
<path d="M46.9439 24.9872C47.31 24.9872 47.6179 24.9593 47.8676 24.9036C48.1173 24.8478 48.3148 24.7618 48.4603 24.6454C48.5863 24.5436 48.6785 24.4139 48.7366 24.2563C48.7973 24.0987 48.8276 23.9024 48.8276 23.6672H48.1585C47.9888 23.6672 47.8167 23.6418 47.6421 23.5909C47.4676 23.54 47.3088 23.4563 47.1657 23.34C47.0251 23.2236 46.91 23.0721 46.8203 22.8854C46.7306 22.6963 46.6857 22.466 46.6857 22.1945C46.6857 22.0345 46.6991 21.8903 46.7257 21.7618C46.7548 21.6309 46.79 21.5145 46.8312 21.4127C46.8748 21.3109 46.9221 21.2224 46.973 21.1472C47.0239 21.0721 47.0736 21.0078 47.1221 20.9545C47.2554 20.8212 47.4082 20.7181 47.5803 20.6454C47.7524 20.5727 47.9366 20.5363 48.133 20.5363C48.3051 20.5363 48.4663 20.563 48.6166 20.6163C48.767 20.6696 48.9015 20.7496 49.0203 20.8563C49.3476 21.1618 49.5112 21.6406 49.5112 22.2927V23.6672C49.5112 24.0115 49.4603 24.3072 49.3585 24.5545C49.2591 24.8042 49.1039 25.0127 48.893 25.18C48.6797 25.3472 48.4142 25.4709 48.0966 25.5509C47.7815 25.6333 47.3973 25.6745 46.9439 25.6745V24.9872ZM48.133 21.2236C47.893 21.2236 47.7063 21.3084 47.573 21.4781C47.4397 21.6478 47.373 21.8866 47.373 22.1945C47.373 22.5072 47.4676 22.7242 47.6567 22.8454C47.7027 22.8745 47.75 22.8987 47.7985 22.9181C47.847 22.9351 47.8942 22.9484 47.9403 22.9581C47.9863 22.9654 48.0276 22.9715 48.0639 22.9763C48.1027 22.9787 48.1342 22.9799 48.1585 22.9799H48.8276V22.2927C48.8276 22.1157 48.8142 21.9666 48.7876 21.8454C48.7609 21.7218 48.727 21.62 48.6857 21.54C48.6445 21.46 48.5973 21.3993 48.5439 21.3581C48.493 21.3145 48.4421 21.283 48.3912 21.2636C48.3403 21.2442 48.2918 21.2333 48.2457 21.2309C48.1997 21.226 48.1621 21.2236 48.133 21.2236Z" fill="#1a1f2d"/>
<path d="M52.2814 23.6672C52.0268 23.6648 51.8159 23.6478 51.6487 23.6163C51.4838 23.5824 51.3432 23.5351 51.2268 23.4745C51.1129 23.4115 51.0208 23.3339 50.9505 23.2418C50.8826 23.1472 50.8293 23.0381 50.7905 22.9145C50.7517 22.7884 50.7262 22.6478 50.7141 22.4927C50.702 22.3375 50.6959 22.1654 50.6959 21.9763V18.4781H51.3832V21.9763C51.3832 22.1872 51.3893 22.3581 51.4014 22.489C51.4159 22.62 51.4511 22.7218 51.5068 22.7945C51.565 22.8648 51.6511 22.9133 51.765 22.9399C51.8814 22.9642 52.0535 22.9775 52.2814 22.9799V23.6672Z" fill="#1a1f2d"/>
<path d="M55.229 22.9799V23.6672H54.9454C54.7248 23.6672 54.5296 23.6357 54.3599 23.5727C54.1927 23.5096 54.0581 23.4151 53.9563 23.289C53.7042 23.5412 53.3309 23.6672 52.8363 23.6672H52.1381V22.9799H52.8363C53.0109 22.9799 53.149 22.963 53.2509 22.929C53.3527 22.8927 53.429 22.849 53.4799 22.7981C53.5333 22.7448 53.5672 22.6866 53.5818 22.6236C53.5987 22.5581 53.6072 22.4963 53.6072 22.4381V21.209H54.2909V22.4127C54.2909 22.5024 54.3042 22.5787 54.3309 22.6418C54.3575 22.7048 54.3915 22.7581 54.4327 22.8018C54.4763 22.843 54.5236 22.8757 54.5745 22.9C54.6278 22.9242 54.6787 22.9424 54.7272 22.9545C54.7757 22.9666 54.8193 22.9739 54.8581 22.9763C54.8969 22.9787 54.926 22.9799 54.9454 22.9799H55.229ZM53.0654 19.5327L53.6836 18.9072L54.3163 19.54L53.6909 20.1654L53.0654 19.5327Z" fill="#1a1f2d"/>
<path d="M55.0762 23.6672V22.9799H56.6907C56.9622 22.9799 57.1804 22.9606 57.3453 22.9218C57.5125 22.883 57.6422 22.8345 57.7343 22.7763C57.8265 22.7181 57.8883 22.6551 57.9198 22.5872C57.9537 22.5169 57.9743 22.4503 57.9816 22.3872H57.4289C57.3659 22.3872 57.2956 22.3848 57.218 22.38C57.1404 22.3751 57.0592 22.3666 56.9743 22.3545C56.8919 22.34 56.8083 22.3193 56.7234 22.2927C56.6386 22.266 56.5562 22.2309 56.4762 22.1872C56.4107 22.1484 56.344 22.0999 56.2762 22.0418C56.2083 21.9836 56.1465 21.9121 56.0907 21.8272C56.0374 21.74 55.9925 21.6381 55.9562 21.5218C55.9222 21.403 55.9053 21.2648 55.9053 21.1072C55.9053 20.9109 55.9392 20.7254 56.0071 20.5509C56.075 20.3739 56.1719 20.2224 56.298 20.0963C56.424 19.9703 56.5683 19.8745 56.7307 19.809C56.8931 19.7436 57.0665 19.7109 57.2507 19.7109C57.4616 19.7109 57.6556 19.7557 57.8325 19.8454C58.0095 19.9351 58.1586 20.0636 58.2798 20.2309C58.4107 20.4054 58.5077 20.6212 58.5707 20.8781C58.6337 21.1351 58.6653 21.4296 58.6653 21.7618V22.2636C58.6653 22.5036 58.6168 22.7169 58.5198 22.9036C58.4253 23.0903 58.281 23.2418 58.0871 23.3581C57.7647 23.5642 57.2992 23.6672 56.6907 23.6672H55.0762ZM57.2507 20.3981C57.1707 20.3981 57.0883 20.4127 57.0034 20.4418C56.921 20.4684 56.8459 20.5109 56.778 20.569C56.7125 20.6248 56.658 20.6975 56.6143 20.7872C56.5731 20.8769 56.5525 20.9836 56.5525 21.1072C56.5525 21.1872 56.561 21.2551 56.578 21.3109C56.595 21.3642 56.6168 21.409 56.6434 21.4454C56.6701 21.4793 56.698 21.5072 56.7271 21.529C56.7562 21.5509 56.784 21.569 56.8107 21.5836C56.881 21.6248 56.9671 21.6551 57.0689 21.6745C57.1707 21.6915 57.2907 21.7 57.4289 21.7H57.9889C57.984 21.46 57.9586 21.2503 57.9125 21.0709C57.8689 20.8915 57.8083 20.7448 57.7307 20.6309C57.6143 20.4757 57.4543 20.3981 57.2507 20.3981ZM56.6943 18.2563L57.3125 17.6309L57.9453 18.2636L57.3198 18.889L56.6943 18.2563Z" fill="#1a1f2d"/>
<path d="M59.8033 24.9872C60.1694 24.9872 60.4772 24.9593 60.7269 24.9036C60.9766 24.8478 61.1742 24.7618 61.3197 24.6454C61.4457 24.5436 61.5378 24.4139 61.596 24.2563C61.6566 24.0987 61.6869 23.9024 61.6869 23.6672H61.0178C60.8481 23.6672 60.676 23.6418 60.5015 23.5909C60.3269 23.54 60.1681 23.4563 60.0251 23.34C59.8845 23.2236 59.7694 23.0721 59.6797 22.8854C59.59 22.6963 59.5451 22.466 59.5451 22.1945C59.5451 22.0345 59.5584 21.8903 59.5851 21.7618C59.6142 21.6309 59.6494 21.5145 59.6906 21.4127C59.7342 21.3109 59.7815 21.2224 59.8324 21.1472C59.8833 21.0721 59.933 21.0078 59.9815 20.9545C60.1148 20.8212 60.2675 20.7181 60.4397 20.6454C60.6118 20.5727 60.796 20.5363 60.9924 20.5363C61.1645 20.5363 61.3257 20.563 61.476 20.6163C61.6263 20.6696 61.7609 20.7496 61.8797 20.8563C62.2069 21.1618 62.3706 21.6406 62.3706 22.2927V23.6672C62.3706 24.0115 62.3197 24.3072 62.2178 24.5545C62.1184 24.8042 61.9633 25.0127 61.7524 25.18C61.5391 25.3472 61.2736 25.4709 60.956 25.5509C60.6409 25.6333 60.2566 25.6745 59.8033 25.6745V24.9872ZM60.9924 21.2236C60.7524 21.2236 60.5657 21.3084 60.4324 21.4781C60.2991 21.6478 60.2324 21.8866 60.2324 22.1945C60.2324 22.5072 60.3269 22.7242 60.516 22.8454C60.5621 22.8745 60.6094 22.8987 60.6578 22.9181C60.7063 22.9351 60.7536 22.9484 60.7997 22.9581C60.8457 22.9654 60.8869 22.9715 60.9233 22.9763C60.9621 22.9787 60.9936 22.9799 61.0178 22.9799H61.6869V22.2927C61.6869 22.1157 61.6736 21.9666 61.6469 21.8454C61.6203 21.7218 61.5863 21.62 61.5451 21.54C61.5039 21.46 61.4566 21.3993 61.4033 21.3581C61.3524 21.3145 61.3015 21.283 61.2506 21.2636C61.1997 21.2442 61.1512 21.2333 61.1051 21.2309C61.0591 21.226 61.0215 21.2236 60.9924 21.2236Z" fill="#1a1f2d"/>
<path d="M73.2317 23.6672C72.9917 23.6672 72.7796 23.6321 72.5953 23.5618C72.4135 23.4915 72.262 23.3896 72.1408 23.2563L72.0535 23.34C71.9323 23.4418 71.7929 23.5218 71.6353 23.58C71.4777 23.6381 71.3165 23.6672 71.1517 23.6672C70.9141 23.6672 70.7056 23.6321 70.5262 23.5618C70.3468 23.4915 70.1965 23.3896 70.0753 23.2563L69.988 23.34C69.8668 23.4418 69.7274 23.5218 69.5699 23.58C69.4123 23.6381 69.2511 23.6672 69.0862 23.6672C68.7832 23.6672 68.5214 23.5993 68.3008 23.4636V23.769C68.3008 24.4042 68.1311 24.8806 67.7917 25.1981C67.4523 25.5157 66.9444 25.6745 66.268 25.6745H65.4135C65.0377 25.6745 64.6971 25.5933 64.3917 25.4309C64.0862 25.2684 63.839 25.0369 63.6499 24.7363C63.519 24.5303 63.4256 24.3012 63.3699 24.049C63.3262 23.8527 63.3044 23.6466 63.3044 23.4309C63.3044 23.3678 63.3093 23.2478 63.319 23.0709C63.3286 22.8939 63.3783 22.6466 63.468 22.329C63.5577 22.0115 63.6826 21.6842 63.8426 21.3472L64.4608 21.649C64.325 21.9303 64.2171 22.2006 64.1371 22.46C64.0596 22.7193 64.0111 22.9642 63.9917 23.1945C63.9868 23.2721 63.9844 23.3472 63.9844 23.42C63.9844 23.5678 64.0002 23.7242 64.0317 23.889C64.0632 24.0539 64.1286 24.2139 64.228 24.369C64.3541 24.5654 64.519 24.7169 64.7226 24.8236C64.9262 24.9327 65.1565 24.9872 65.4135 24.9872H66.268C66.5468 24.9872 66.7735 24.9581 66.948 24.9C67.125 24.8418 67.262 24.7593 67.3589 24.6527C67.4583 24.546 67.525 24.4175 67.559 24.2672C67.5953 24.1193 67.6135 23.9533 67.6135 23.769V21.2127H68.3008V21.9181C68.3008 22.1509 68.3226 22.3375 68.3662 22.4781C68.4123 22.6163 68.4717 22.723 68.5444 22.7981C68.6196 22.8733 68.7032 22.923 68.7953 22.9472C68.8899 22.9715 68.9868 22.9836 69.0862 22.9836C69.1468 22.9836 69.2159 22.9727 69.2935 22.9509C69.3711 22.929 69.4438 22.8927 69.5117 22.8418C69.5796 22.7884 69.6365 22.7181 69.6826 22.6309C69.7311 22.5436 69.7553 22.4345 69.7553 22.3036V21.2127H70.4389V22.34C70.4438 22.5606 70.502 22.723 70.6135 22.8272C70.7274 22.9315 70.9093 22.9836 71.159 22.9836C71.2196 22.9836 71.2874 22.9727 71.3626 22.9509C71.4402 22.929 71.5129 22.8927 71.5808 22.8418C71.6487 22.7884 71.7056 22.7181 71.7517 22.6309C71.7977 22.5436 71.8208 22.4345 71.8208 22.3036V21.2127H72.5044V22.34C72.5093 22.5606 72.5686 22.723 72.6826 22.8272C72.799 22.929 72.982 22.9799 73.2317 22.9799H73.519V23.6672H73.2317ZM70.599 18.7036L70.0826 19.209L69.5735 18.7036L70.0971 18.1836L70.599 18.7036ZM70.7771 20.3472L70.2026 19.7654L70.7699 19.1763L71.3589 19.7654L70.7771 20.3472ZM69.3844 20.34L68.8099 19.7581L69.3771 19.169L69.9662 19.7581L69.3844 20.34Z" fill="#1a1f2d"/>
<path d="M75.3367 20.7072C75.3415 20.7218 75.3512 20.7606 75.3658 20.8236C75.3803 20.8866 75.3961 20.9654 75.413 21.0599C75.4324 21.1521 75.453 21.2551 75.4749 21.369C75.4967 21.4806 75.5161 21.5945 75.533 21.7109C75.55 21.8248 75.5646 21.9351 75.5767 22.0418C75.5888 22.1484 75.5949 22.2418 75.5949 22.3218C75.5949 22.5545 75.5561 22.7557 75.4785 22.9254C75.4033 23.0927 75.3039 23.2321 75.1803 23.3436C75.0591 23.4527 74.9221 23.5339 74.7694 23.5872C74.6167 23.6406 74.4627 23.6672 74.3076 23.6672H73.3803V22.9799H74.3076C74.344 22.9799 74.3949 22.9751 74.4603 22.9654C74.5282 22.9533 74.5949 22.9254 74.6603 22.8818C74.7282 22.8381 74.7864 22.7727 74.8349 22.6854C74.8858 22.5981 74.9112 22.4769 74.9112 22.3218C74.9112 22.2684 74.9064 22.2018 74.8967 22.1218C74.8894 22.0393 74.8785 21.9521 74.864 21.86C74.8518 21.7654 74.8373 21.6696 74.8203 21.5727C74.8033 21.4733 74.7864 21.38 74.7694 21.2927C74.7524 21.2054 74.7367 21.1278 74.7221 21.0599C74.7076 20.9921 74.6955 20.9412 74.6858 20.9072L75.3367 20.7072ZM74.1367 19.2054L74.7549 18.58L75.3876 19.2127L74.7621 19.8381L74.1367 19.2054Z" fill="#1a1f2d"/>
<path d="M77.2895 23.6636H76.6022V18.4781H77.2895V23.6636Z" fill="#1a1f2d"/>
<path d="M79.9901 23.7218C79.8665 23.7218 79.7416 23.7157 79.6155 23.7036C79.4895 23.6939 79.3658 23.6781 79.2446 23.6563C79.1258 23.6321 79.0107 23.6018 78.8992 23.5654C78.7901 23.5266 78.6907 23.4806 78.601 23.4272L78.2992 23.2563L78.641 22.6563L78.9428 22.8272C79.0277 22.8757 79.1319 22.9157 79.2555 22.9472C79.3792 22.9763 79.5101 22.9969 79.6483 23.009C79.7671 23.0212 79.8858 23.0272 80.0046 23.0272C80.0264 23.0272 80.0774 23.0272 80.1574 23.0272C80.2374 23.0248 80.3368 23.0151 80.4555 22.9981C80.5961 22.9763 80.7113 22.946 80.801 22.9072C80.8931 22.866 80.9513 22.82 80.9755 22.769C80.9852 22.7448 80.9901 22.7181 80.9901 22.689C80.9901 22.6478 80.978 22.5909 80.9537 22.5181C80.9295 22.443 80.8786 22.3472 80.801 22.2309L79.4846 20.2418L80.0665 19.8636C80.098 19.9121 80.1307 19.963 80.1646 20.0163C80.1986 20.0672 80.2386 20.1278 80.2846 20.1981C80.3307 20.266 80.384 20.3472 80.4446 20.4418C80.5052 20.5339 80.5792 20.6454 80.6665 20.7763C80.7537 20.9072 80.8555 21.06 80.9719 21.2345C81.0883 21.409 81.224 21.6127 81.3792 21.8454C81.4398 21.9375 81.4943 22.0345 81.5428 22.1363C81.5913 22.2357 81.6277 22.3363 81.6519 22.4381C81.6737 22.5303 81.6846 22.6224 81.6846 22.7145C81.6846 22.7242 81.6834 22.7581 81.681 22.8163C81.6786 22.8721 81.6543 22.9496 81.6083 23.049C81.4555 23.3909 81.104 23.6018 80.5537 23.6818C80.4689 23.6939 80.3792 23.7036 80.2846 23.7109C80.1901 23.7181 80.0919 23.7218 79.9901 23.7218Z" fill="#1a1f2d"/>
<path d="M90.1234 22.9799V23.6636H90.0143C89.8374 23.6636 89.6701 23.6381 89.5125 23.5872C89.3549 23.5339 89.2143 23.4575 89.0907 23.3581C89.0761 23.346 89.0616 23.3339 89.0471 23.3218C89.0325 23.3072 89.018 23.2927 89.0034 23.2781C88.7464 23.5327 88.3743 23.6612 87.887 23.6636H83.7598C83.5877 23.6636 83.4252 23.6345 83.2725 23.5763C83.1222 23.5181 82.9889 23.4345 82.8725 23.3254C82.824 23.2818 82.7755 23.2284 82.727 23.1654C82.6786 23.1024 82.6337 23.0284 82.5925 22.9436C82.5537 22.8587 82.521 22.763 82.4943 22.6563C82.4701 22.5472 82.458 22.4248 82.458 22.289C82.458 22.1678 82.4701 22.0345 82.4943 21.889C82.521 21.7436 82.5489 21.6054 82.578 21.4745C82.6095 21.3436 82.6386 21.2309 82.6652 21.1363C82.6943 21.0418 82.7125 20.9836 82.7198 20.9618L83.3743 21.169C83.3574 21.22 83.3355 21.2927 83.3089 21.3872C83.2846 21.4793 83.2592 21.5787 83.2325 21.6854C83.2083 21.7921 83.1864 21.8999 83.167 22.009C83.1501 22.1157 83.1416 22.209 83.1416 22.289C83.1416 22.449 83.167 22.5751 83.218 22.6672C83.2689 22.7593 83.3283 22.8284 83.3961 22.8745C83.4664 22.9206 83.5367 22.9496 83.607 22.9618C83.6774 22.9739 83.7307 22.9799 83.767 22.9799H87.8616C88.0386 22.9799 88.1792 22.9618 88.2834 22.9254C88.3901 22.889 88.4701 22.843 88.5234 22.7872C88.5792 22.7315 88.6143 22.6709 88.6289 22.6054C88.6458 22.5375 88.6543 22.4733 88.6543 22.4127V21.1509H89.3416V22.3945C89.3416 22.5327 89.3707 22.6418 89.4289 22.7218C89.4895 22.7993 89.5586 22.8575 89.6361 22.8963C89.7137 22.9351 89.7889 22.9593 89.8616 22.969C89.9343 22.9763 89.9852 22.9799 90.0143 22.9799H90.1234ZM86.5525 20.8818L85.978 20.3L86.5452 19.7109L87.1343 20.3L86.5525 20.8818ZM85.1598 20.8745L84.5852 20.2927L85.1525 19.7036L85.7416 20.2927L85.1598 20.8745Z" fill="#1a1f2d"/>
<path d="M89.9319 23.6672V22.9799H92.0628C92.2374 22.9799 92.3816 22.9606 92.4955 22.9218C92.6119 22.8806 92.6871 22.8248 92.721 22.7545C92.738 22.7181 92.7465 22.6769 92.7465 22.6309C92.7465 22.5896 92.7343 22.5315 92.7101 22.4563C92.6883 22.3787 92.6398 22.2781 92.5646 22.1545C92.4895 22.0284 92.3974 21.8963 92.2883 21.7581C92.1792 21.62 92.0616 21.4818 91.9355 21.3436C91.8095 21.2054 91.6798 21.0709 91.5464 20.9399C91.4131 20.8066 91.2846 20.6842 91.161 20.5727C91.0374 20.4587 90.9246 20.3593 90.8228 20.2745C90.721 20.1872 90.6374 20.1206 90.5719 20.0745L90.641 19.3L93.9683 17.8381L94.2446 18.4636L91.3319 19.7363C91.4046 19.809 91.498 19.9012 91.6119 20.0127C91.7258 20.1218 91.8495 20.2442 91.9828 20.38C92.1161 20.5133 92.2519 20.6563 92.3901 20.809C92.5283 20.9593 92.6592 21.1109 92.7828 21.2636C92.9065 21.4163 93.0155 21.5666 93.1101 21.7145C93.2071 21.86 93.2786 21.9945 93.3246 22.1181C93.3658 22.2248 93.3949 22.3242 93.4119 22.4163C93.424 22.4963 93.4301 22.569 93.4301 22.6345C93.4301 22.6466 93.4289 22.6745 93.4265 22.7181C93.4265 22.7618 93.418 22.8139 93.401 22.8745C93.3864 22.9351 93.3695 22.9872 93.3501 23.0309C93.3234 23.0915 93.2822 23.1593 93.2264 23.2345C93.1707 23.3072 93.0919 23.3763 92.9901 23.4418C92.8907 23.5048 92.7658 23.5581 92.6155 23.6018C92.4652 23.6454 92.281 23.6672 92.0628 23.6672H89.9319Z" fill="#1a1f2d"/>
<path d="M96.7795 23.6672H96.6231C96.3904 23.6672 96.1759 23.6212 95.9795 23.529C95.9795 23.8684 95.9322 24.1715 95.8377 24.4381C95.7431 24.7048 95.6049 24.9303 95.4231 25.1145C95.2413 25.3012 95.0171 25.443 94.7504 25.54C94.4862 25.6369 94.1819 25.6854 93.8377 25.6854H93.3359V24.9981H93.8377C94.0874 24.9981 94.3031 24.9678 94.4849 24.9072C94.6692 24.849 94.8207 24.7581 94.9395 24.6345C95.0607 24.5109 95.1492 24.3533 95.2049 24.1618C95.2631 23.9703 95.2922 23.7424 95.2922 23.4781V21.209H95.9795V22.4127C95.9795 22.5484 96.0074 22.6551 96.0631 22.7327C96.1213 22.8078 96.188 22.8636 96.2631 22.9C96.3383 22.9363 96.4098 22.9593 96.4777 22.969C96.548 22.9763 96.5965 22.9799 96.6231 22.9799H96.7795V23.6672Z" fill="#1a1f2d"/>
<path d="M99.4667 23.66C99.2388 23.66 99.0364 23.6272 98.8594 23.5618C98.6824 23.4939 98.5333 23.3969 98.4121 23.2709C98.2861 23.4066 98.1394 23.5072 97.9721 23.5727C97.8049 23.6357 97.6364 23.6672 97.4667 23.6672H96.6303V22.9799H97.4667C97.503 22.9799 97.5552 22.9751 97.623 22.9654C97.6909 22.9533 97.7576 22.9254 97.823 22.8818C97.8885 22.8357 97.9455 22.7678 97.9939 22.6781C98.0449 22.5884 98.0703 22.466 98.0703 22.3109V21.209H98.7576V22.2963C98.7576 22.5315 98.8121 22.7036 98.9212 22.8127C99.0327 22.9218 99.2146 22.9763 99.4667 22.9763C99.503 22.9763 99.554 22.9703 99.6194 22.9581C99.6873 22.9436 99.7539 22.9133 99.8194 22.8672C99.8873 22.8212 99.9455 22.7533 99.9939 22.6636C100.045 22.5739 100.07 22.4515 100.07 22.2963V21.209H100.754V22.2963C100.754 22.5315 100.811 22.7048 100.925 22.8163C101.039 22.9278 101.222 22.9836 101.474 22.9836C101.513 22.9836 101.565 22.9763 101.63 22.9618C101.696 22.9448 101.76 22.9121 101.823 22.8636C101.888 22.8151 101.944 22.746 101.99 22.6563C102.036 22.5666 102.059 22.4466 102.059 22.2963C102.059 22.243 102.055 22.1763 102.045 22.0963C102.038 22.0163 102.027 21.9303 102.012 21.8381C102 21.746 101.985 21.6527 101.968 21.5581C101.952 21.4612 101.935 21.3715 101.918 21.289C101.901 21.2042 101.885 21.129 101.87 21.0636C101.856 20.9957 101.844 20.946 101.834 20.9145L102.485 20.7072C102.49 20.7218 102.499 20.7606 102.514 20.8236C102.528 20.8842 102.545 20.9606 102.565 21.0527C102.584 21.1424 102.604 21.243 102.623 21.3545C102.645 21.466 102.664 21.5787 102.681 21.6927C102.701 21.8042 102.716 21.9133 102.728 22.0199C102.741 22.1242 102.747 22.2163 102.747 22.2963C102.747 22.5266 102.709 22.7278 102.634 22.9C102.559 23.0696 102.461 23.2115 102.339 23.3254C102.221 23.4369 102.085 23.5218 101.932 23.58C101.779 23.6357 101.627 23.6648 101.474 23.6672C101.241 23.6672 101.035 23.6333 100.856 23.5654C100.679 23.4951 100.528 23.3945 100.405 23.2636C100.279 23.3969 100.132 23.4963 99.9649 23.5618C99.8 23.6272 99.6339 23.66 99.4667 23.66ZM100.961 18.5727L100.445 19.0781L99.9358 18.5727L100.459 18.0527L100.961 18.5727ZM101.139 20.2163L100.565 19.6345L101.132 19.0454L101.721 19.6345L101.139 20.2163ZM99.7467 20.209L99.1721 19.6272L99.7394 19.0381L100.328 19.6272L99.7467 20.209Z" fill="#1a1f2d"/>
</svg>
