<svg width="194" height="158" viewBox="0 0 194 158" fill="none" xmlns="http://www.w3.org/2000/svg">
<g clip-path="url(#clip0_4849_12506)">
<path d="M68.397 2.0545e-06H125.586C134.57 -0.00220218 143.466 1.76927 151.766 5.21326C160.066 8.65724 167.608 13.7063 173.961 20.072C180.314 26.4377 185.354 33.9953 188.792 42.3133C192.23 50.6313 194 59.5466 194 68.5502V146.006H0V68.5502C0 50.3696 7.2061 32.9335 20.033 20.0779C32.86 7.22224 50.257 2.0545e-06 68.397 2.0545e-06V2.0545e-06Z" fill="#F0BA6B"/>
<path d="M89.3059 98.8647L96.8913 80.0629L89.3059 69.3054L80.9893 91.4581L89.3059 98.8647Z" fill="#CC545A"/>
<path d="M114.847 48.7303C114.847 48.7303 127.59 50.4085 135.025 57.1214C142.459 63.8344 143.632 79.9398 147.41 87.9786C151.189 96.0173 156.843 102.411 157.318 106.903C157.792 111.395 153.706 113.762 153.706 113.762H110.008C110.008 113.762 104.934 110.45 104.934 106.903C104.934 103.357 106.346 102.176 104.934 98.3892C103.522 94.602 87.6648 68.181 87.6648 68.181L114.847 48.7303Z" fill="#F06F76"/>
<path d="M138.028 70.0159C138.028 70.0159 138.753 89.2372 138.809 97.5724C138.865 105.908 138.329 108.923 140.009 109.879C141.689 110.836 138.028 70.0159 138.028 70.0159Z" fill="#FFFDFF"/>
<path d="M119.569 81.2488C119.569 81.2488 121.634 76.3372 121.841 71.5487C121.953 68.8859 119.921 66.2063 118.096 64.3546L119.391 53.2895L114.216 62.0946L90.9802 65.7811L89.7131 66.693C91.7895 69.7865 100.949 83.425 104.443 88.7561C108.395 94.7866 107.156 102.411 106.447 104.716C106.078 105.924 105.464 107.026 105.163 108.291C106.173 111.267 109.986 113.762 109.986 113.762H128.304C125.268 103.016 119.569 81.2488 119.569 81.2488Z" fill="#CC545A"/>
<path d="M146.936 109.152C142.337 107.021 141.862 101.936 141.51 94.0146C141.159 86.0933 138.028 70.0159 138.028 70.0159C138.028 70.0159 139.144 89.2876 139.389 94.0146C139.635 98.7416 139.741 106.551 139.389 108.917C139.038 111.284 136.442 113.023 136.442 113.023C136.633 113.284 136.842 113.531 137.068 113.762H153.706C155.013 112.931 156.064 111.754 156.743 110.361C154.158 111.032 150.553 110.825 146.936 109.152Z" fill="#CC545A"/>
<path d="M81.1677 55.1076C81.1677 55.1076 81.4022 46.308 81.7259 44.4788C82.0496 42.6495 83.0208 37.3854 84.2041 37.6204C85.3874 37.8553 85.3986 39.4552 85.46 41.3517C85.5214 43.2481 85.2646 53.6587 85.2646 53.6587L81.1677 55.1076Z" fill="#F7C4A5"/>
<path d="M81.458 47.5499C81.7238 47.4865 81.9671 47.351 82.1613 47.1583C82.1613 47.1583 83.0934 39.9699 84.1986 37.6484C83.0153 37.4134 82.0162 42.6831 81.7203 44.5067C81.6087 45.0158 81.5306 46.1682 81.458 47.5499Z" fill="#FFFDFF"/>
<path d="M86.2081 53.9943C86.2081 53.9943 87.6816 49.0268 87.6704 47.1919C87.6593 45.357 87.5365 42.7614 86.2081 43.0523C84.8796 43.3432 84.7624 47.9024 83.9754 49.3792C83.1884 50.856 81.38 54.4139 81.0283 55.4096C80.6767 56.4054 82.8535 66.8776 82.8535 66.8776L73.0857 93.3097H87.6704L90.4222 72.2591L95.9647 68.1698L86.2081 53.9943Z" fill="#F7C4A5"/>
<path d="M82.8758 66.8776L74.0513 90.6917L75.6867 90.8931L83.8247 67.1293L81.1678 57.5074C81.6199 60.8415 82.8758 66.8776 82.8758 66.8776Z" fill="#FFFDFF"/>
<path d="M95.9701 68.1698L94.1672 65.5462L89.3057 63.4428C89.9787 64.7729 90.3593 66.2322 90.422 67.7223V72.2591L95.9701 68.1698Z" fill="#E58C7E"/>
<path d="M61.5205 117.129H100.452L77.3388 133.442L61.5205 117.129Z" fill="#3F3D56"/>
<path d="M84.5279 127.244C84.5279 127.244 59.2208 110.568 55.3305 110.204C51.4401 109.84 45.7747 111.798 44.1672 117.829C42.5597 123.859 42.7551 128.458 44.1672 129.716C45.5794 130.975 57.0887 139.198 57.0887 139.198H84.5167L84.5279 127.244Z" fill="#3F3D56"/>
<path d="M104.465 115.418L91.9849 88.9463C91.8143 88.5833 91.5443 88.2765 91.2063 88.0615C90.8683 87.8466 90.4763 87.7324 90.0759 87.7324H44.77L57.8254 115.401L104.465 115.418Z" fill="#DAE1E6"/>
<path d="M101.161 115.418L88.6806 88.9463C88.5106 88.5829 88.2407 88.2757 87.9026 88.0606C87.5644 87.8456 87.1721 87.7317 86.7716 87.7324H43.7095C43.47 87.7319 43.2343 87.7922 43.0243 87.9076C42.8143 88.0231 42.6369 88.1901 42.5087 88.3928C42.3805 88.5956 42.3057 88.8276 42.2912 89.0672C42.2767 89.3069 42.323 89.5463 42.4258 89.7631L54.5211 115.401L101.161 115.418Z" fill="#FFFDFF"/>
<path d="M54.5212 115.418H120.451V120.833H57.312C56.5719 120.833 55.862 120.538 55.3386 120.014C54.8153 119.489 54.5212 118.778 54.5212 118.036V115.395V115.418Z" fill="#DAE1E6"/>
<path d="M126.055 91.5308C126.055 91.5308 133.077 90.3673 135.879 97.22C138.681 104.073 136.202 110.691 133.607 113.169C131.011 115.647 123.225 113.169 123.225 113.169L126.055 91.5308Z" fill="#F38C91"/>
<path d="M114.981 46.3584L120.451 49.2281C120.451 49.2281 118.838 56.204 116.912 60.5338C114.987 64.8637 113.993 67.1349 113.993 67.1349L107.976 63.6498L114.981 46.3584Z" fill="#F38C91"/>
<path d="M92.5486 56.1816C92.5486 56.1816 92.0518 58.257 88.8647 60.5171C85.6776 62.7771 83.8022 61.6862 83.4952 61.5072C83.1882 61.3282 86.2079 55.1467 86.2079 53.9943C86.2079 52.8419 76.8308 53.7258 77.361 51.1525C77.8913 48.5792 81.5193 48.7582 83.9083 43.7963C86.2972 38.8343 87.553 34.7506 94.4407 32.4458C101.328 30.1411 106.826 36.1715 106.826 36.1715C106.826 36.1715 113.374 36.7029 115.495 42.8229C117.616 48.9429 115.495 53.2 115.495 53.2L92.5486 56.1816Z" fill="#3F3D56"/>
<path d="M93.0286 33.643C97.8176 32.0431 103.366 33.0836 106.246 35.6009C104.666 34.1632 100.006 30.5662 94.4407 32.4402C87.553 34.7506 86.2972 38.8287 83.9082 43.7963C82.9764 45.7609 81.5023 47.4169 79.6606 48.5681C81.3947 47.9376 82.8776 46.7597 83.8859 45.2116C86.3028 41.3516 87.8935 35.3548 93.0286 33.643Z" fill="#FFFDFF"/>
<path d="M112.017 50.6211C110.587 51.6498 109.106 52.6057 107.58 53.4853L92.2195 56.9648C91.391 58.3916 90.2449 59.6072 88.8705 60.5171C88.4897 60.787 88.0905 61.03 87.676 61.2443C88.9969 63.1414 90.4757 64.923 92.0967 66.5699C96.5619 71.0452 101.557 75.1792 103.612 75.1289C105.666 75.0785 111.426 70.4018 112.86 64.7965C114.295 59.1913 114.032 57.1382 114.032 57.1382C114.732 56.8263 115.334 56.3283 115.772 55.6982C116.21 55.0681 116.467 54.3299 116.516 53.5636C116.857 50.7386 113.552 49.4407 112.017 50.6211Z" fill="#F7C4A5"/>
<path d="M98.0298 55.6502L92.2194 56.9648C91.9491 57.4569 91.6293 57.9199 91.2649 58.3466L96.4446 60.5171L100.218 66.8776C100.218 66.8776 99.8662 69.1152 100.575 70.0159C101.284 70.9165 101.82 70.5138 102.378 71.5375C102.936 72.5612 102.378 75.073 105.777 73.2493C109.176 71.4256 111.632 64.6903 111.632 64.6903L98.0298 55.6502Z" fill="#E58C7E"/>
<path d="M115.439 68.4775C115.439 68.4775 112.961 48.3779 112.609 46.8395C112.257 45.3011 103.639 33.8332 103.17 33.6542C102.702 33.4752 101.222 35.0751 102.104 37.0834C102.986 39.0916 107.295 45.7151 107.239 46.308C107.184 46.901 106.045 45.9444 105.236 45.0046C104.627 44.3053 98.7274 38.9014 97.8902 38.342C96.2939 37.2736 93.3747 34.717 93.023 35.131C92.6714 35.545 91.7839 37.5589 94.318 40.2161C96.852 42.8733 104.008 49.3233 104.008 49.3233L103.701 49.8827L89.4843 42.5544C89.4843 42.5544 88.1838 44.2662 90.5448 46.6325C92.9058 48.9988 100.469 53.8153 100.469 53.8153C100.469 53.8153 99.4642 55.3537 97.1646 54.5817C94.865 53.8097 89.0824 51.27 88.3735 51.5665C87.6647 51.863 87.6647 54.0503 89.9643 55.8236C92.2639 57.5969 98.8949 61.4177 98.8949 61.4177C98.8949 61.4177 102.244 68.5055 103.455 70.3683C104.198 71.4905 105.057 72.5311 106.017 73.473C106.017 73.473 113.775 96.1739 115.428 102.562C117.08 108.951 120.323 115.048 126.49 114.388C132.658 113.728 133.004 102.383 130.883 97.7738C128.762 93.1643 115.439 68.4775 115.439 68.4775Z" fill="#F7C4A5"/>
<path d="M85.8285 55.3817L86.208 53.9887C86.208 53.9887 87.6816 49.0212 87.6704 47.1863C87.6592 45.3514 87.5364 42.7558 86.208 43.0466C84.8796 43.3375 84.7624 47.8967 83.9754 49.3736C83.2721 50.733 81.6758 53.8489 81.1455 55.102L85.8061 55.3817H85.8285Z" fill="#F7C4A5"/>
<path d="M153.706 113.762C153.706 113.762 157.613 125.823 157.357 131.501C157.1 137.179 155.04 144.977 148.119 144.977H123.225L106.609 137.408C106.609 137.408 94.3291 143.562 87.9661 144.977C81.603 146.392 65.5503 144.977 65.5503 144.977L62.7205 135.282C62.7205 135.282 68.3802 134.572 79.7109 126.058C91.0415 117.543 97.639 113.527 103.539 112.581C109.439 111.636 153.706 113.762 153.706 113.762Z" fill="#545172"/>
<path d="M65.5337 144.977H41.1142L40.0872 141.939C39.612 140.51 39.7111 138.951 40.3634 137.593C41.0156 136.236 42.1698 135.186 43.5812 134.667V134.667C46.8331 133.476 50.3398 133.162 53.7509 133.755L62.6815 135.305L65.5337 144.977Z" fill="#3F3D56"/>
<path d="M93.8214 59.0011L91.8957 60.5394C91.5799 60.7932 91.3627 61.1499 91.2822 61.5475C91.2016 61.9451 91.2627 62.3584 91.4548 62.7156L91.8622 63.4596C92.1594 64.0104 92.6609 64.4219 93.2583 64.6051C93.8558 64.7883 94.5011 64.7285 95.0549 64.4385L98.4653 62.6652L96.8913 60.5171L93.8214 59.0011Z" fill="#E58C7E"/>
<path d="M69.9919 106.542C71.4203 105.747 71.5848 103.309 70.3592 101.097C69.1337 98.885 66.9823 97.736 65.5539 98.5309C64.1255 99.3257 63.961 101.763 65.1865 103.976C66.4121 106.188 68.5635 107.337 69.9919 106.542Z" fill="#DAE1E6"/>
<path d="M35.4766 130.857H32.2895C30.7667 130.857 29.5322 132.095 29.5322 133.621V138.354C29.5322 139.88 30.7667 141.117 32.2895 141.117H35.4766C36.9995 141.117 38.234 139.88 38.234 138.354V133.621C38.234 132.095 36.9995 130.857 35.4766 130.857Z" stroke="#DAE1E6" stroke-width="5.07" stroke-miterlimit="10"/>
<path d="M30.5649 125.593H18.4081C17.2367 125.593 16.2871 126.545 16.2871 127.719V142.98C16.2871 144.154 17.2367 145.106 18.4081 145.106H30.5649C31.7363 145.106 32.6859 144.154 32.6859 142.98V127.719C32.6859 126.545 31.7363 125.593 30.5649 125.593Z" fill="#E9EDF0"/>
<path d="M136.442 60.3268C140.45 66.4804 143.431 75.1233 143.442 75.1456C141.594 68.2649 139.389 61.0821 135.025 57.127C131.625 54.0447 127.115 52.0252 123.225 50.7441C123.225 50.7441 132.435 54.1789 136.442 60.3268Z" fill="#FFFDFF"/>
<path d="M115.539 42.946C115.529 42.9023 115.516 42.8594 115.5 42.8173C113.379 36.6974 106.832 36.1659 106.832 36.1659C110.178 37.7867 113.145 40.097 115.539 42.946V42.946Z" fill="#FFFDFF"/>
<path d="M114.635 68.9418C115.009 70.027 128.388 93.9083 131.447 99.3625C131.304 98.8276 131.118 98.3055 130.889 97.8018C128.762 93.1866 115.433 68.4775 115.433 68.4775C115.433 68.4775 112.955 48.3778 112.603 46.8395C112.252 45.3011 103.634 33.8332 103.165 33.6541C103.165 33.6541 110.795 44.7752 111.599 46.9178C112.402 49.0603 114.216 67.6887 114.635 68.9418Z" fill="#FFFDFF"/>
<path d="M147.41 87.9841C146.31 85.4368 145.423 82.8022 144.759 80.1076V80.1076C145.513 85.4032 147.302 90.4979 150.022 95.0998C153.461 100.884 156.162 104.962 157.318 108.229C157.362 107.785 157.362 107.337 157.318 106.892C156.843 102.411 151.183 96.0284 147.41 87.9841Z" fill="#FFFDFF"/>
<path d="M105.236 45.0046C104.627 44.3053 98.7274 38.9014 97.8902 38.342C96.3106 37.2847 93.4249 34.7674 93.0342 35.1254C94.3682 36.2442 98.1414 39.3602 99.6316 40.4902C101.217 41.6929 105.124 45.5249 106.274 46.0395C105.9 45.7232 105.553 45.3771 105.236 45.0046V45.0046Z" fill="#FFFDFF"/>
<path d="M89.4843 42.5824C89.3045 42.8566 89.1899 43.1686 89.1494 43.4942L103.701 49.9106L89.4843 42.5824Z" fill="#FFFDFF"/>
<path d="M99.4419 54.5929C98.7056 54.8779 97.8897 54.8779 97.1534 54.5929C94.8538 53.8265 89.0713 51.2812 88.3624 51.5777C88.2679 51.6206 88.1883 51.6907 88.1335 51.7791C89.3168 52.2098 91.5551 53.0265 93.7152 53.8209C96.7906 54.9621 99.0456 55.4656 99.4419 54.5929Z" fill="#FFFDFF"/>
<path d="M92.6548 76.533C97.4326 84.6221 104.064 96.0061 104.934 98.3892C105.255 99.2064 105.458 100.065 105.537 100.94V100.94C105.537 100.94 106.028 97.841 102.746 91.4581C99.4643 85.0752 92.6548 76.533 92.6548 76.533Z" fill="#FFFDFF"/>
<path d="M119.921 145.609C119.921 145.609 122.868 142.141 121.456 137.777C120.044 133.414 112.134 132.575 108.713 134.466C105.291 136.356 105.174 137.218 98.666 139.567C92.1579 141.917 86.9893 143.925 83.8022 147.472C80.6151 151.019 81.0895 154.185 82.6245 156.456C84.1594 158.727 96.919 158.352 101.63 156.456C106.341 154.56 108.105 151.254 112.352 149.245C116.6 147.237 117.917 147.774 119.921 145.609Z" fill="#3F3D56"/>
<path d="M0 144.977H194" stroke="#3F3D56" stroke-width="5.07" stroke-miterlimit="10"/>
</g>
<defs>
<clipPath id="clip0_4849_12506">
<rect width="194" height="158" fill="white"/>
</clipPath>
</defs>
</svg>
